<?xml version="1.0" encoding="UTF-8" standalone="no"?>
<!DOCTYPE svg PUBLIC "-//W3C//DTD SVG 1.1//EN" "http://www.w3.org/Graphics/SVG/1.1/DTD/svg11.dtd">
<svg width="100%" height="100%" viewBox="0 0 300 160" version="1.1" xmlns="http://www.w3.org/2000/svg" xmlns:xlink="http://www.w3.org/1999/xlink" xml:space="preserve" xmlns:serif="http://www.serif.com/" style="fill-rule:evenodd;clip-rule:evenodd;stroke-linejoin:round;stroke-miterlimit:2;">
    <g transform="matrix(1,0,0,1,-81.205524,4.018399)">
        <g transform="matrix(0.9,0,0,1,8.584687,0)">
            <g transform="matrix(54.166667,0,0,54.166667,85.846868,54.257541)">
                <path d="M0.216,-0.085C0.216,-0.065 0.218,-0.05 0.223,-0.04C0.227,-0.029 0.236,-0.022 0.25,-0.018C0.264,-0.014 0.285,-0.012 0.312,-0.012C0.314,-0.012 0.315,-0.01 0.315,-0.006C0.315,-0.002 0.314,-0 0.312,-0C0.291,-0 0.268,-0 0.242,-0.001C0.218,-0.002 0.19,-0.002 0.161,-0.002C0.137,-0.002 0.114,-0.002 0.092,-0.001C0.071,-0 0.051,-0 0.034,-0C0.032,-0 0.031,-0.002 0.031,-0.006C0.031,-0.01 0.032,-0.012 0.034,-0.012C0.055,-0.012 0.07,-0.014 0.08,-0.017C0.09,-0.02 0.097,-0.027 0.1,-0.037C0.103,-0.047 0.105,-0.062 0.105,-0.081L0.105,-0.544C0.105,-0.563 0.103,-0.578 0.1,-0.588C0.097,-0.597 0.09,-0.604 0.08,-0.608C0.07,-0.611 0.055,-0.613 0.034,-0.613C0.032,-0.613 0.031,-0.615 0.031,-0.619C0.031,-0.623 0.032,-0.625 0.034,-0.625C0.051,-0.625 0.071,-0.624 0.092,-0.624C0.113,-0.623 0.136,-0.622 0.16,-0.622C0.176,-0.622 0.197,-0.623 0.223,-0.625C0.249,-0.627 0.273,-0.628 0.296,-0.628C0.338,-0.628 0.375,-0.623 0.408,-0.612C0.44,-0.6 0.466,-0.583 0.485,-0.559C0.504,-0.535 0.515,-0.503 0.516,-0.464C0.517,-0.43 0.512,-0.4 0.499,-0.375C0.487,-0.35 0.47,-0.329 0.449,-0.312C0.427,-0.295 0.403,-0.283 0.377,-0.275C0.35,-0.266 0.324,-0.262 0.298,-0.262C0.291,-0.262 0.284,-0.262 0.276,-0.263C0.267,-0.264 0.259,-0.265 0.251,-0.267C0.249,-0.268 0.248,-0.27 0.249,-0.275C0.25,-0.279 0.251,-0.281 0.254,-0.28C0.259,-0.279 0.265,-0.278 0.272,-0.277C0.279,-0.276 0.284,-0.276 0.288,-0.276C0.307,-0.276 0.325,-0.282 0.341,-0.294C0.357,-0.306 0.37,-0.324 0.38,-0.349C0.39,-0.374 0.395,-0.404 0.395,-0.441C0.395,-0.476 0.39,-0.506 0.38,-0.53C0.37,-0.555 0.355,-0.574 0.336,-0.587C0.317,-0.6 0.293,-0.606 0.264,-0.606C0.252,-0.606 0.243,-0.604 0.236,-0.601C0.229,-0.598 0.224,-0.591 0.221,-0.582C0.217,-0.573 0.216,-0.559 0.216,-0.542L0.216,-0.085Z" style="fill:rgb(32,22,17);fill-rule:nonzero;"/>
            </g>
            <g transform="matrix(54.166667,0,0,54.166667,115.801034,54.257541)">
                <path d="M0.035,-0C0.034,-0 0.033,-0.002 0.033,-0.006C0.033,-0.01 0.034,-0.012 0.035,-0.012C0.056,-0.012 0.07,-0.017 0.077,-0.026C0.085,-0.036 0.089,-0.054 0.089,-0.081L0.09,-0.589C0.09,-0.612 0.088,-0.628 0.084,-0.639C0.08,-0.649 0.072,-0.654 0.061,-0.654C0.052,-0.654 0.04,-0.65 0.023,-0.643C0.021,-0.642 0.019,-0.644 0.017,-0.648C0.015,-0.652 0.015,-0.654 0.016,-0.655L0.163,-0.724C0.164,-0.725 0.166,-0.725 0.167,-0.725C0.17,-0.725 0.174,-0.724 0.178,-0.721C0.182,-0.717 0.184,-0.715 0.184,-0.712L0.184,-0.081C0.184,-0.054 0.188,-0.036 0.195,-0.026C0.202,-0.017 0.216,-0.012 0.237,-0.012C0.24,-0.012 0.241,-0.01 0.241,-0.006C0.241,-0.002 0.24,-0 0.237,-0C0.224,-0 0.209,-0 0.192,-0.001C0.174,-0.002 0.155,-0.002 0.136,-0.002C0.117,-0.002 0.098,-0.002 0.081,-0.001C0.064,-0 0.048,-0 0.035,-0Z" style="fill:rgb(32,22,17);fill-rule:nonzero;"/>
            </g>
            <g transform="matrix(54.166667,0,0,54.166667,130.317701,54.257541)">
                <path d="M0.319,0.006C0.316,0.007 0.313,0.008 0.309,0.008C0.297,0.008 0.285,0 0.273,-0.016C0.261,-0.032 0.255,-0.055 0.255,-0.085L0.255,-0.255C0.255,-0.297 0.252,-0.328 0.245,-0.348C0.238,-0.367 0.226,-0.377 0.209,-0.377C0.192,-0.377 0.18,-0.372 0.172,-0.361C0.163,-0.351 0.158,-0.34 0.154,-0.327C0.151,-0.314 0.15,-0.304 0.149,-0.295C0.147,-0.274 0.141,-0.26 0.131,-0.252C0.121,-0.243 0.108,-0.239 0.091,-0.239C0.074,-0.239 0.061,-0.243 0.054,-0.25C0.047,-0.257 0.043,-0.266 0.043,-0.277C0.043,-0.293 0.05,-0.308 0.065,-0.323C0.079,-0.337 0.097,-0.349 0.119,-0.36C0.141,-0.371 0.164,-0.38 0.188,-0.387C0.211,-0.393 0.232,-0.396 0.25,-0.396C0.277,-0.396 0.301,-0.387 0.32,-0.37C0.339,-0.353 0.349,-0.324 0.349,-0.285L0.349,-0.108C0.349,-0.089 0.353,-0.074 0.359,-0.063C0.366,-0.052 0.376,-0.047 0.389,-0.047C0.398,-0.047 0.408,-0.049 0.418,-0.054C0.421,-0.055 0.423,-0.054 0.424,-0.051C0.426,-0.047 0.425,-0.044 0.422,-0.043L0.319,0.006ZM0.127,0.007C0.098,0.007 0.076,0 0.061,-0.013C0.047,-0.025 0.04,-0.043 0.04,-0.065C0.04,-0.087 0.046,-0.104 0.058,-0.116C0.07,-0.127 0.086,-0.137 0.105,-0.144C0.124,-0.15 0.144,-0.158 0.165,-0.165L0.265,-0.202L0.269,-0.187L0.212,-0.161C0.207,-0.159 0.199,-0.156 0.189,-0.151C0.179,-0.147 0.17,-0.141 0.162,-0.133C0.154,-0.124 0.15,-0.112 0.15,-0.097C0.15,-0.08 0.156,-0.067 0.167,-0.059C0.178,-0.05 0.19,-0.046 0.201,-0.046C0.206,-0.046 0.211,-0.047 0.216,-0.048C0.222,-0.049 0.227,-0.052 0.234,-0.057L0.284,-0.091L0.285,-0.075L0.215,-0.025C0.2,-0.014 0.186,-0.006 0.173,-0.001C0.16,0.004 0.144,0.007 0.127,0.007Z" style="fill:rgb(32,22,17);fill-rule:nonzero;"/>
            </g>
            <g transform="matrix(54.166667,0,0,54.166667,153.121868,54.257541)">
                <path d="M0.308,-0C0.306,-0 0.305,-0.002 0.305,-0.006C0.305,-0.01 0.306,-0.012 0.308,-0.012C0.329,-0.012 0.343,-0.017 0.35,-0.026C0.357,-0.036 0.361,-0.054 0.361,-0.081L0.361,-0.225C0.361,-0.261 0.354,-0.288 0.342,-0.305C0.329,-0.322 0.308,-0.331 0.28,-0.331C0.26,-0.331 0.24,-0.326 0.218,-0.316C0.198,-0.306 0.181,-0.292 0.168,-0.275L0.163,-0.287C0.186,-0.32 0.213,-0.347 0.242,-0.367C0.271,-0.388 0.303,-0.398 0.338,-0.398C0.375,-0.398 0.404,-0.386 0.424,-0.363C0.445,-0.34 0.455,-0.31 0.455,-0.273L0.455,-0.081C0.455,-0.054 0.459,-0.036 0.467,-0.026C0.474,-0.017 0.488,-0.012 0.509,-0.012C0.511,-0.012 0.512,-0.01 0.512,-0.006C0.512,-0.002 0.511,-0 0.509,-0C0.496,-0 0.48,-0 0.463,-0.001C0.446,-0.002 0.427,-0.002 0.408,-0.002C0.389,-0.002 0.371,-0.002 0.354,-0.001C0.337,-0 0.321,-0 0.308,-0ZM0.039,-0C0.037,-0 0.036,-0.002 0.036,-0.006C0.036,-0.01 0.037,-0.012 0.039,-0.012C0.06,-0.012 0.074,-0.017 0.081,-0.026C0.088,-0.036 0.092,-0.054 0.092,-0.081L0.092,-0.269C0.092,-0.29 0.09,-0.305 0.085,-0.315C0.08,-0.324 0.072,-0.329 0.061,-0.329C0.055,-0.329 0.048,-0.328 0.04,-0.326C0.032,-0.323 0.023,-0.32 0.013,-0.315C0.01,-0.314 0.008,-0.315 0.007,-0.319C0.006,-0.323 0.006,-0.325 0.007,-0.326L0.146,-0.394C0.15,-0.395 0.152,-0.396 0.153,-0.396C0.16,-0.396 0.168,-0.388 0.175,-0.372C0.182,-0.356 0.186,-0.333 0.186,-0.303L0.186,-0.081C0.186,-0.054 0.19,-0.036 0.198,-0.026C0.205,-0.017 0.219,-0.012 0.24,-0.012C0.242,-0.012 0.243,-0.01 0.243,-0.006C0.243,-0.002 0.242,-0 0.24,-0C0.227,-0 0.211,-0 0.194,-0.001C0.177,-0.002 0.158,-0.002 0.139,-0.002C0.12,-0.002 0.102,-0.002 0.085,-0.001C0.068,-0 0.052,-0 0.039,-0Z" style="fill:rgb(32,22,17);fill-rule:nonzero;"/>
            </g>
            <g transform="matrix(54.166667,0,0,54.166667,181.613534,54.257541)">
            </g>
            <g transform="matrix(54.166667,0,0,54.166667,194.288534,54.257541)">
                <path d="M0.184,0.012C0.168,0.012 0.152,0.009 0.136,0.004C0.119,-0.001 0.105,-0.011 0.095,-0.024C0.084,-0.037 0.078,-0.056 0.078,-0.08L0.078,-0.302C0.078,-0.316 0.076,-0.327 0.073,-0.335C0.07,-0.343 0.064,-0.349 0.057,-0.352C0.05,-0.355 0.04,-0.357 0.027,-0.357C0.024,-0.357 0.023,-0.36 0.023,-0.366C0.023,-0.372 0.024,-0.375 0.027,-0.375C0.061,-0.376 0.089,-0.384 0.11,-0.398C0.131,-0.411 0.147,-0.431 0.158,-0.458C0.159,-0.461 0.162,-0.462 0.167,-0.462C0.171,-0.462 0.173,-0.461 0.173,-0.458L0.173,-0.113C0.173,-0.086 0.18,-0.067 0.194,-0.056C0.207,-0.045 0.224,-0.039 0.244,-0.039C0.259,-0.039 0.274,-0.042 0.288,-0.049C0.301,-0.055 0.313,-0.062 0.322,-0.069C0.324,-0.071 0.327,-0.071 0.33,-0.068C0.333,-0.065 0.333,-0.062 0.33,-0.06C0.305,-0.035 0.282,-0.017 0.259,-0.005C0.236,0.006 0.211,0.012 0.184,0.012ZM0.299,-0.335C0.272,-0.341 0.245,-0.345 0.22,-0.348C0.194,-0.35 0.167,-0.351 0.138,-0.351L0.138,-0.377C0.165,-0.377 0.192,-0.378 0.218,-0.38C0.245,-0.382 0.273,-0.384 0.303,-0.387C0.304,-0.387 0.306,-0.385 0.307,-0.38C0.309,-0.374 0.31,-0.369 0.31,-0.363C0.31,-0.356 0.309,-0.35 0.306,-0.344C0.304,-0.337 0.302,-0.334 0.299,-0.335Z" style="fill:rgb(32,22,17);fill-rule:nonzero;"/>
            </g>
            <g transform="matrix(54.166667,0,0,54.166667,212.488534,54.257541)">
                <path d="M0.237,0.013C0.195,0.013 0.159,0.003 0.128,-0.016C0.097,-0.035 0.074,-0.061 0.057,-0.093C0.04,-0.126 0.032,-0.161 0.032,-0.198C0.032,-0.233 0.039,-0.263 0.052,-0.288C0.065,-0.313 0.083,-0.334 0.105,-0.351C0.127,-0.367 0.151,-0.379 0.177,-0.387C0.203,-0.395 0.229,-0.399 0.254,-0.399C0.297,-0.399 0.333,-0.389 0.363,-0.369C0.394,-0.349 0.417,-0.323 0.433,-0.292C0.449,-0.261 0.457,-0.227 0.457,-0.192C0.457,-0.151 0.447,-0.116 0.426,-0.085C0.406,-0.053 0.379,-0.029 0.346,-0.013C0.313,0.005 0.276,0.013 0.237,0.013ZM0.267,-0.008C0.294,-0.008 0.314,-0.021 0.327,-0.047C0.34,-0.073 0.347,-0.11 0.347,-0.157C0.347,-0.206 0.341,-0.246 0.329,-0.279C0.316,-0.312 0.3,-0.336 0.281,-0.353C0.262,-0.37 0.241,-0.378 0.22,-0.378C0.194,-0.378 0.174,-0.366 0.161,-0.343C0.147,-0.32 0.14,-0.284 0.14,-0.235C0.14,-0.19 0.146,-0.15 0.157,-0.116C0.168,-0.081 0.184,-0.055 0.203,-0.036C0.222,-0.017 0.244,-0.008 0.267,-0.008Z" style="fill:rgb(32,22,17);fill-rule:nonzero;"/>
            </g>
            <g transform="matrix(54.166667,0,0,54.166667,238.976034,54.257541)">
                <path d="M0.182,0.282C0.136,0.282 0.098,0.272 0.069,0.251C0.04,0.23 0.025,0.202 0.025,0.168C0.025,0.147 0.033,0.124 0.05,0.1C0.066,0.076 0.097,0.05 0.144,0.021L0.154,0.032C0.146,0.037 0.139,0.044 0.133,0.052C0.127,0.059 0.122,0.068 0.12,0.079C0.117,0.09 0.115,0.102 0.115,0.116C0.115,0.146 0.121,0.171 0.134,0.191C0.146,0.21 0.162,0.225 0.181,0.235C0.2,0.245 0.221,0.25 0.242,0.25C0.275,0.25 0.302,0.239 0.323,0.218C0.343,0.197 0.353,0.168 0.353,0.131C0.353,0.101 0.346,0.08 0.334,0.067C0.321,0.054 0.303,0.047 0.28,0.044C0.257,0.041 0.231,0.039 0.201,0.039C0.178,0.038 0.156,0.036 0.133,0.033C0.11,0.03 0.092,0.023 0.076,0.011C0.061,0 0.054,-0.017 0.054,-0.04C0.054,-0.063 0.062,-0.086 0.079,-0.108C0.095,-0.13 0.121,-0.15 0.157,-0.167L0.166,-0.161C0.153,-0.153 0.143,-0.144 0.136,-0.135C0.129,-0.125 0.126,-0.113 0.126,-0.099C0.126,-0.08 0.131,-0.067 0.142,-0.059C0.152,-0.051 0.166,-0.046 0.185,-0.044C0.204,-0.043 0.225,-0.042 0.25,-0.041C0.273,-0.041 0.295,-0.04 0.317,-0.038C0.338,-0.037 0.358,-0.033 0.376,-0.026C0.394,-0.019 0.408,-0.009 0.419,0.006C0.43,0.021 0.435,0.041 0.435,0.067C0.435,0.096 0.428,0.123 0.415,0.148C0.402,0.174 0.383,0.197 0.36,0.217C0.337,0.237 0.31,0.253 0.279,0.265C0.248,0.276 0.216,0.282 0.182,0.282ZM0.199,-0.133C0.167,-0.133 0.139,-0.14 0.116,-0.153C0.093,-0.166 0.075,-0.183 0.062,-0.204C0.049,-0.225 0.043,-0.246 0.043,-0.268C0.043,-0.296 0.052,-0.319 0.07,-0.338C0.088,-0.357 0.111,-0.37 0.138,-0.38C0.165,-0.389 0.191,-0.393 0.218,-0.393C0.249,-0.393 0.276,-0.388 0.299,-0.377C0.322,-0.365 0.341,-0.351 0.354,-0.332C0.368,-0.313 0.375,-0.292 0.375,-0.268C0.375,-0.24 0.366,-0.216 0.349,-0.196C0.331,-0.176 0.308,-0.161 0.282,-0.149C0.255,-0.138 0.227,-0.133 0.199,-0.133ZM0.225,-0.151C0.238,-0.151 0.25,-0.158 0.261,-0.171C0.272,-0.184 0.277,-0.207 0.277,-0.24C0.277,-0.271 0.272,-0.296 0.263,-0.316C0.253,-0.335 0.241,-0.35 0.227,-0.359C0.212,-0.369 0.198,-0.374 0.185,-0.374C0.169,-0.374 0.158,-0.367 0.15,-0.354C0.143,-0.341 0.14,-0.322 0.14,-0.298C0.14,-0.269 0.144,-0.244 0.152,-0.222C0.161,-0.2 0.171,-0.183 0.184,-0.17C0.198,-0.157 0.211,-0.151 0.225,-0.151ZM0.302,-0.313L0.304,-0.345C0.325,-0.362 0.346,-0.374 0.366,-0.383C0.387,-0.392 0.409,-0.396 0.434,-0.396C0.437,-0.396 0.44,-0.393 0.441,-0.388C0.442,-0.383 0.442,-0.376 0.442,-0.368C0.442,-0.359 0.441,-0.348 0.438,-0.337C0.435,-0.326 0.433,-0.321 0.43,-0.323C0.418,-0.328 0.406,-0.333 0.393,-0.336C0.38,-0.339 0.368,-0.34 0.356,-0.34C0.348,-0.34 0.34,-0.339 0.333,-0.339C0.325,-0.338 0.317,-0.335 0.308,-0.332L0.302,-0.313Z" style="fill:rgb(32,22,17);fill-rule:nonzero;"/>
            </g>
            <g transform="matrix(54.166667,0,0,54.166667,262.682979,54.257541)">
                <path d="M0.235,0.012C0.192,0.012 0.155,0.003 0.124,-0.015C0.094,-0.033 0.071,-0.057 0.056,-0.087C0.04,-0.116 0.032,-0.148 0.032,-0.182C0.032,-0.221 0.042,-0.257 0.061,-0.289C0.08,-0.321 0.107,-0.347 0.141,-0.366C0.175,-0.385 0.214,-0.395 0.258,-0.395C0.297,-0.395 0.329,-0.386 0.352,-0.368C0.376,-0.35 0.388,-0.321 0.388,-0.28C0.388,-0.271 0.387,-0.264 0.386,-0.258C0.385,-0.252 0.382,-0.249 0.377,-0.249L0.281,-0.249C0.282,-0.287 0.279,-0.318 0.27,-0.341C0.261,-0.363 0.245,-0.375 0.22,-0.375C0.193,-0.375 0.172,-0.361 0.157,-0.334C0.141,-0.307 0.133,-0.27 0.133,-0.225C0.133,-0.186 0.139,-0.153 0.151,-0.125C0.163,-0.097 0.181,-0.075 0.204,-0.06C0.227,-0.045 0.256,-0.037 0.29,-0.037C0.31,-0.037 0.327,-0.04 0.341,-0.044C0.354,-0.05 0.369,-0.056 0.386,-0.065C0.387,-0.066 0.389,-0.066 0.392,-0.063C0.394,-0.06 0.394,-0.058 0.393,-0.056C0.368,-0.031 0.343,-0.014 0.318,-0.004C0.292,0.007 0.264,0.012 0.235,0.012ZM0.098,-0.248L0.097,-0.267L0.316,-0.271L0.316,-0.249L0.098,-0.248Z" style="fill:rgb(32,22,17);fill-rule:nonzero;"/>
            </g>
            <g transform="matrix(54.166667,0,0,54.166667,285.324646,54.257541)">
                <path d="M0.184,0.012C0.168,0.012 0.152,0.009 0.136,0.004C0.119,-0.001 0.105,-0.011 0.095,-0.024C0.084,-0.037 0.078,-0.056 0.078,-0.08L0.078,-0.302C0.078,-0.316 0.076,-0.327 0.073,-0.335C0.07,-0.343 0.064,-0.349 0.057,-0.352C0.05,-0.355 0.04,-0.357 0.027,-0.357C0.024,-0.357 0.023,-0.36 0.023,-0.366C0.023,-0.372 0.024,-0.375 0.027,-0.375C0.061,-0.376 0.089,-0.384 0.11,-0.398C0.131,-0.411 0.147,-0.431 0.158,-0.458C0.159,-0.461 0.162,-0.462 0.167,-0.462C0.171,-0.462 0.173,-0.461 0.173,-0.458L0.173,-0.113C0.173,-0.086 0.18,-0.067 0.194,-0.056C0.207,-0.045 0.224,-0.039 0.244,-0.039C0.259,-0.039 0.274,-0.042 0.288,-0.049C0.301,-0.055 0.313,-0.062 0.322,-0.069C0.324,-0.071 0.327,-0.071 0.33,-0.068C0.333,-0.065 0.333,-0.062 0.33,-0.06C0.305,-0.035 0.282,-0.017 0.259,-0.005C0.236,0.006 0.211,0.012 0.184,0.012ZM0.299,-0.335C0.272,-0.341 0.245,-0.345 0.22,-0.348C0.194,-0.35 0.167,-0.351 0.138,-0.351L0.138,-0.377C0.165,-0.377 0.192,-0.378 0.218,-0.38C0.245,-0.382 0.273,-0.384 0.303,-0.387C0.304,-0.387 0.306,-0.385 0.307,-0.38C0.309,-0.374 0.31,-0.369 0.31,-0.363C0.31,-0.356 0.309,-0.35 0.306,-0.344C0.304,-0.337 0.302,-0.334 0.299,-0.335Z" style="fill:rgb(32,22,17);fill-rule:nonzero;"/>
            </g>
            <g transform="matrix(54.166667,0,0,54.166667,303.524646,54.257541)">
                <path d="M0.021,-0C0.02,-0 0.019,-0.002 0.019,-0.006C0.019,-0.01 0.02,-0.012 0.021,-0.012C0.042,-0.012 0.056,-0.017 0.064,-0.026C0.071,-0.036 0.075,-0.054 0.075,-0.081L0.075,-0.589C0.075,-0.612 0.073,-0.628 0.069,-0.639C0.065,-0.649 0.057,-0.654 0.046,-0.654C0.037,-0.654 0.024,-0.65 0.008,-0.643C0.006,-0.642 0.004,-0.644 0.002,-0.648C0,-0.652 -0,-0.654 0.001,-0.655L0.147,-0.724C0.148,-0.725 0.149,-0.725 0.15,-0.725L0.152,-0.725C0.155,-0.725 0.159,-0.724 0.163,-0.721C0.166,-0.717 0.168,-0.715 0.168,-0.712L0.168,-0.081C0.168,-0.054 0.172,-0.036 0.179,-0.026C0.187,-0.017 0.201,-0.012 0.222,-0.012C0.225,-0.012 0.226,-0.01 0.226,-0.006C0.226,-0.002 0.225,-0 0.222,-0C0.209,-0 0.194,-0 0.176,-0.001C0.16,-0.002 0.141,-0.002 0.122,-0.002C0.103,-0.002 0.084,-0.002 0.067,-0.001C0.05,-0 0.034,-0 0.021,-0ZM0.29,-0C0.289,-0 0.288,-0.002 0.288,-0.006C0.288,-0.01 0.289,-0.012 0.29,-0.012C0.311,-0.012 0.325,-0.017 0.333,-0.026C0.34,-0.036 0.344,-0.054 0.344,-0.081L0.344,-0.225C0.344,-0.296 0.317,-0.331 0.262,-0.331C0.242,-0.331 0.222,-0.326 0.201,-0.316C0.179,-0.306 0.163,-0.292 0.151,-0.275L0.145,-0.287C0.168,-0.32 0.195,-0.347 0.224,-0.367C0.253,-0.388 0.285,-0.398 0.32,-0.398C0.357,-0.398 0.386,-0.386 0.407,-0.363C0.427,-0.34 0.437,-0.31 0.437,-0.273L0.437,-0.081C0.437,-0.054 0.441,-0.036 0.449,-0.026C0.456,-0.017 0.47,-0.012 0.491,-0.012C0.494,-0.012 0.495,-0.01 0.495,-0.006C0.495,-0.002 0.494,-0 0.491,-0C0.478,-0 0.463,-0 0.446,-0.001C0.428,-0.002 0.41,-0.002 0.391,-0.002C0.372,-0.002 0.353,-0.002 0.336,-0.001C0.319,-0 0.303,-0 0.29,-0Z" style="fill:rgb(32,22,17);fill-rule:nonzero;"/>
            </g>
            <g transform="matrix(54.166667,0,0,54.166667,331.095479,54.257541)">
                <path d="M0.235,0.012C0.192,0.012 0.155,0.003 0.124,-0.015C0.094,-0.033 0.071,-0.057 0.056,-0.087C0.04,-0.116 0.032,-0.148 0.032,-0.182C0.032,-0.221 0.042,-0.257 0.061,-0.289C0.08,-0.321 0.107,-0.347 0.141,-0.366C0.175,-0.385 0.214,-0.395 0.258,-0.395C0.297,-0.395 0.329,-0.386 0.352,-0.368C0.376,-0.35 0.388,-0.321 0.388,-0.28C0.388,-0.271 0.387,-0.264 0.386,-0.258C0.385,-0.252 0.382,-0.249 0.377,-0.249L0.281,-0.249C0.282,-0.287 0.279,-0.318 0.27,-0.341C0.261,-0.363 0.245,-0.375 0.22,-0.375C0.193,-0.375 0.172,-0.361 0.157,-0.334C0.141,-0.307 0.133,-0.27 0.133,-0.225C0.133,-0.186 0.139,-0.153 0.151,-0.125C0.163,-0.097 0.181,-0.075 0.204,-0.06C0.227,-0.045 0.256,-0.037 0.29,-0.037C0.31,-0.037 0.327,-0.04 0.341,-0.044C0.354,-0.05 0.369,-0.056 0.386,-0.065C0.387,-0.066 0.389,-0.066 0.392,-0.063C0.394,-0.06 0.394,-0.058 0.393,-0.056C0.368,-0.031 0.343,-0.014 0.318,-0.004C0.292,0.007 0.264,0.012 0.235,0.012ZM0.098,-0.248L0.097,-0.267L0.316,-0.271L0.316,-0.249L0.098,-0.248Z" style="fill:rgb(32,22,17);fill-rule:nonzero;"/>
            </g>
            <g transform="matrix(54.166667,0,0,54.166667,353.737146,54.257541)">
                <path d="M0.161,-0.271L0.153,-0.284C0.179,-0.314 0.201,-0.337 0.219,-0.353C0.237,-0.369 0.252,-0.38 0.265,-0.387C0.278,-0.393 0.289,-0.396 0.299,-0.396C0.313,-0.396 0.328,-0.391 0.343,-0.381C0.357,-0.37 0.365,-0.357 0.365,-0.34C0.365,-0.326 0.361,-0.315 0.352,-0.305C0.344,-0.296 0.333,-0.292 0.318,-0.292C0.304,-0.292 0.294,-0.296 0.287,-0.303C0.28,-0.31 0.273,-0.318 0.268,-0.325C0.262,-0.332 0.254,-0.335 0.243,-0.335C0.238,-0.335 0.233,-0.334 0.228,-0.331C0.222,-0.328 0.214,-0.322 0.204,-0.312C0.193,-0.303 0.179,-0.29 0.161,-0.271ZM0.039,-0C0.037,-0 0.036,-0.002 0.036,-0.006C0.036,-0.01 0.037,-0.012 0.039,-0.012C0.06,-0.012 0.074,-0.017 0.081,-0.026C0.088,-0.036 0.092,-0.054 0.092,-0.081L0.092,-0.269C0.092,-0.29 0.09,-0.305 0.085,-0.315C0.08,-0.324 0.072,-0.329 0.061,-0.329C0.055,-0.329 0.048,-0.328 0.04,-0.326C0.032,-0.323 0.023,-0.32 0.013,-0.315C0.01,-0.314 0.008,-0.315 0.007,-0.319C0.006,-0.323 0.006,-0.325 0.007,-0.326L0.146,-0.394C0.15,-0.395 0.152,-0.396 0.153,-0.396C0.16,-0.396 0.168,-0.388 0.175,-0.372C0.182,-0.356 0.186,-0.333 0.186,-0.303L0.186,-0.081C0.186,-0.064 0.189,-0.05 0.194,-0.04C0.199,-0.029 0.209,-0.022 0.222,-0.018C0.235,-0.014 0.252,-0.012 0.275,-0.012C0.278,-0.012 0.279,-0.01 0.279,-0.006C0.279,-0.002 0.278,-0 0.275,-0C0.257,-0 0.237,-0 0.213,-0.001C0.191,-0.002 0.166,-0.002 0.139,-0.002C0.12,-0.002 0.102,-0.002 0.085,-0.001C0.068,-0 0.052,-0 0.039,-0Z" style="fill:rgb(32,22,17);fill-rule:nonzero;"/>
            </g>
            <g transform="matrix(54.166667,0,0,54.166667,372.159831,54.257541)">
                <path d="M0.101,-0.106C0.124,-0.106 0.142,-0.098 0.155,-0.083C0.169,-0.067 0.175,-0.042 0.175,-0.009C0.175,0.028 0.166,0.062 0.148,0.095C0.131,0.127 0.106,0.158 0.075,0.189C0.072,0.191 0.07,0.191 0.068,0.189C0.066,0.187 0.066,0.185 0.067,0.182C0.086,0.159 0.099,0.136 0.105,0.114C0.112,0.092 0.115,0.069 0.115,0.044C0.115,0.024 0.113,0.01 0.11,0.001C0.106,-0.008 0.101,-0.015 0.094,-0.02L0.131,-0.027C0.132,-0.016 0.128,-0.007 0.121,-0.001C0.114,0.005 0.104,0.008 0.091,0.008C0.074,0.008 0.06,0.003 0.051,-0.007C0.041,-0.018 0.036,-0.031 0.036,-0.048C0.036,-0.067 0.042,-0.081 0.054,-0.091C0.066,-0.101 0.082,-0.106 0.101,-0.106Z" style="fill:rgb(32,22,17);fill-rule:nonzero;"/>
            </g>
            <g transform="matrix(54.166667,0,0,54.166667,384.184831,54.257541)">
            </g>
        </g>
    </g>
    <g transform="matrix(1,0,0,1,-52.812198,40.72602)">
        <g transform="matrix(0.9,0,0,1,8.584687,0)">
            <g transform="matrix(29.166667,0,0,29.166667,85.846868,54.257541)">
                <path d="M0.449,-0.001L0.305,-0.303C0.291,-0.332 0.28,-0.352 0.271,-0.361C0.263,-0.37 0.252,-0.374 0.24,-0.374C0.238,-0.374 0.238,-0.376 0.238,-0.38C0.238,-0.384 0.238,-0.386 0.24,-0.386C0.25,-0.386 0.261,-0.386 0.272,-0.385C0.284,-0.384 0.297,-0.384 0.312,-0.384C0.336,-0.384 0.356,-0.384 0.372,-0.385C0.389,-0.386 0.405,-0.386 0.418,-0.386C0.42,-0.386 0.421,-0.384 0.421,-0.38C0.421,-0.376 0.42,-0.374 0.418,-0.374C0.4,-0.374 0.385,-0.371 0.374,-0.365C0.363,-0.36 0.361,-0.349 0.369,-0.335L0.494,-0.077L0.459,-0.022L0.573,-0.299C0.583,-0.324 0.582,-0.343 0.571,-0.355C0.56,-0.368 0.538,-0.374 0.506,-0.374C0.504,-0.374 0.503,-0.376 0.503,-0.38C0.503,-0.384 0.504,-0.386 0.506,-0.386C0.521,-0.386 0.536,-0.386 0.551,-0.385C0.565,-0.384 0.583,-0.384 0.606,-0.384C0.621,-0.384 0.633,-0.384 0.643,-0.385C0.652,-0.386 0.663,-0.386 0.676,-0.386C0.678,-0.386 0.679,-0.384 0.679,-0.38C0.679,-0.376 0.678,-0.374 0.676,-0.374C0.66,-0.374 0.645,-0.368 0.632,-0.357C0.62,-0.345 0.607,-0.325 0.595,-0.296L0.471,-0.001C0.47,0.002 0.466,0.003 0.46,0.003C0.454,0.003 0.45,0.002 0.449,-0.001ZM0.209,-0.001L0.065,-0.303C0.051,-0.333 0.04,-0.352 0.03,-0.361C0.02,-0.37 0.009,-0.374 -0.004,-0.374C-0.006,-0.374 -0.007,-0.376 -0.007,-0.38C-0.007,-0.384 -0.006,-0.386 -0.004,-0.386C0.006,-0.386 0.017,-0.386 0.03,-0.385C0.043,-0.384 0.057,-0.384 0.073,-0.384C0.096,-0.384 0.115,-0.384 0.132,-0.385C0.149,-0.386 0.164,-0.386 0.179,-0.386C0.181,-0.386 0.182,-0.384 0.182,-0.38C0.182,-0.376 0.181,-0.374 0.179,-0.374C0.159,-0.374 0.144,-0.371 0.133,-0.366C0.122,-0.361 0.12,-0.35 0.128,-0.335L0.255,-0.077L0.219,-0.022L0.328,-0.285L0.348,-0.277L0.232,-0.001C0.231,0.002 0.227,0.003 0.221,0.003C0.215,0.003 0.211,0.002 0.209,-0.001Z" style="fill:rgb(42,29,22);fill-opacity:0.9;fill-rule:nonzero;"/>
            </g>
            <g transform="matrix(29.166667,0,0,29.166667,105.534368,54.257541)">
                <path d="M0.049,-0C0.047,-0 0.046,-0.002 0.046,-0.006C0.046,-0.01 0.047,-0.012 0.049,-0.012C0.073,-0.012 0.089,-0.017 0.097,-0.026C0.105,-0.035 0.109,-0.053 0.109,-0.081L0.109,-0.266C0.109,-0.289 0.107,-0.306 0.102,-0.316C0.098,-0.327 0.089,-0.332 0.077,-0.332C0.072,-0.332 0.066,-0.331 0.059,-0.329C0.052,-0.327 0.044,-0.323 0.034,-0.319C0.032,-0.318 0.03,-0.32 0.028,-0.324C0.026,-0.328 0.027,-0.33 0.029,-0.331L0.165,-0.394C0.167,-0.395 0.168,-0.395 0.169,-0.395C0.171,-0.395 0.173,-0.394 0.176,-0.392C0.178,-0.39 0.179,-0.388 0.179,-0.385C0.179,-0.379 0.179,-0.366 0.178,-0.346C0.178,-0.326 0.177,-0.3 0.177,-0.267L0.177,-0.081C0.177,-0.053 0.181,-0.035 0.189,-0.026C0.196,-0.017 0.213,-0.012 0.237,-0.012C0.239,-0.012 0.24,-0.01 0.24,-0.006C0.24,-0.002 0.239,-0 0.237,-0C0.225,-0 0.211,-0 0.195,-0.001C0.178,-0.002 0.161,-0.002 0.143,-0.002C0.125,-0.002 0.108,-0.002 0.092,-0.001C0.076,-0 0.061,-0 0.049,-0ZM0.137,-0.507C0.121,-0.507 0.109,-0.511 0.1,-0.519C0.092,-0.528 0.087,-0.54 0.087,-0.555C0.087,-0.569 0.092,-0.581 0.1,-0.589C0.109,-0.597 0.121,-0.601 0.137,-0.601C0.152,-0.601 0.163,-0.597 0.171,-0.589C0.18,-0.581 0.184,-0.569 0.184,-0.555C0.184,-0.523 0.168,-0.507 0.137,-0.507Z" style="fill:rgb(42,29,22);fill-opacity:0.9;fill-rule:nonzero;"/>
            </g>
            <g transform="matrix(29.166667,0,0,29.166667,113.409368,54.257541)">
                <path d="M0.187,0.012C0.171,0.012 0.155,0.009 0.14,0.004C0.125,-0.001 0.112,-0.01 0.102,-0.022C0.093,-0.034 0.088,-0.052 0.088,-0.073L0.088,-0.304C0.088,-0.32 0.087,-0.331 0.084,-0.339C0.081,-0.347 0.076,-0.352 0.069,-0.355C0.062,-0.358 0.051,-0.359 0.036,-0.359C0.034,-0.359 0.033,-0.362 0.033,-0.367C0.033,-0.371 0.034,-0.374 0.036,-0.374C0.066,-0.374 0.089,-0.382 0.108,-0.396C0.126,-0.409 0.137,-0.428 0.142,-0.452C0.143,-0.454 0.145,-0.455 0.15,-0.455C0.155,-0.455 0.157,-0.454 0.157,-0.452L0.157,-0.107C0.157,-0.08 0.164,-0.06 0.178,-0.047C0.191,-0.034 0.21,-0.028 0.234,-0.028C0.25,-0.028 0.266,-0.031 0.279,-0.037C0.293,-0.043 0.304,-0.049 0.313,-0.056C0.316,-0.058 0.318,-0.057 0.32,-0.054C0.323,-0.051 0.323,-0.049 0.32,-0.047C0.295,-0.026 0.273,-0.011 0.252,-0.002C0.232,0.007 0.21,0.012 0.187,0.012ZM0.29,-0.337C0.263,-0.343 0.237,-0.347 0.213,-0.349C0.188,-0.351 0.162,-0.352 0.135,-0.352L0.135,-0.375C0.161,-0.375 0.187,-0.376 0.212,-0.378C0.238,-0.38 0.265,-0.383 0.293,-0.385C0.295,-0.385 0.296,-0.383 0.298,-0.378C0.299,-0.374 0.3,-0.368 0.3,-0.362C0.3,-0.356 0.299,-0.351 0.297,-0.345C0.295,-0.339 0.292,-0.336 0.29,-0.337Z" style="fill:rgb(42,29,22);fill-opacity:0.9;fill-rule:nonzero;"/>
            </g>
            <g transform="matrix(29.166667,0,0,29.166667,123.267701,54.257541)">
                <path d="M0.024,-0C0.023,-0 0.022,-0.002 0.022,-0.006C0.022,-0.01 0.023,-0.012 0.024,-0.012C0.049,-0.012 0.065,-0.017 0.073,-0.026C0.08,-0.035 0.084,-0.053 0.084,-0.081L0.084,-0.595C0.084,-0.618 0.082,-0.636 0.078,-0.646C0.073,-0.657 0.065,-0.662 0.054,-0.662C0.044,-0.662 0.029,-0.658 0.01,-0.649C0.008,-0.648 0.006,-0.649 0.004,-0.653C0.002,-0.657 0.002,-0.659 0.004,-0.66L0.138,-0.725C0.139,-0.725 0.139,-0.725 0.14,-0.725L0.141,-0.725C0.144,-0.725 0.146,-0.724 0.148,-0.722C0.151,-0.72 0.152,-0.718 0.152,-0.715L0.152,-0.081C0.152,-0.053 0.156,-0.035 0.164,-0.026C0.172,-0.017 0.188,-0.012 0.213,-0.012C0.215,-0.012 0.216,-0.01 0.216,-0.006C0.216,-0.002 0.215,-0 0.213,-0C0.2,-0 0.186,-0 0.17,-0.001C0.154,-0.002 0.137,-0.002 0.119,-0.002C0.101,-0.002 0.084,-0.002 0.067,-0.001C0.051,-0 0.037,-0 0.024,-0ZM0.293,-0C0.292,-0 0.291,-0.002 0.291,-0.006C0.291,-0.01 0.292,-0.012 0.293,-0.012C0.318,-0.012 0.334,-0.017 0.342,-0.026C0.349,-0.035 0.353,-0.053 0.353,-0.081L0.353,-0.235C0.353,-0.311 0.324,-0.349 0.265,-0.349C0.241,-0.349 0.218,-0.342 0.194,-0.328C0.17,-0.314 0.15,-0.295 0.134,-0.272L0.129,-0.284C0.157,-0.321 0.185,-0.35 0.214,-0.369C0.243,-0.387 0.274,-0.397 0.306,-0.397C0.342,-0.397 0.371,-0.386 0.391,-0.365C0.411,-0.344 0.421,-0.313 0.421,-0.274L0.421,-0.081C0.421,-0.053 0.425,-0.035 0.433,-0.026C0.441,-0.017 0.457,-0.012 0.482,-0.012C0.484,-0.012 0.485,-0.01 0.485,-0.006C0.485,-0.002 0.484,-0 0.482,-0C0.469,-0 0.455,-0 0.439,-0.001C0.423,-0.002 0.406,-0.002 0.388,-0.002C0.37,-0.002 0.353,-0.002 0.336,-0.001C0.32,-0 0.306,-0 0.293,-0Z" style="fill:rgb(42,29,22);fill-opacity:0.9;fill-rule:nonzero;"/>
            </g>
            <g transform="matrix(29.166667,0,0,29.166667,137.909368,54.257541)">
                <path d="M0.233,0.013C0.193,0.013 0.157,0.003 0.128,-0.016C0.098,-0.035 0.075,-0.061 0.059,-0.093C0.043,-0.126 0.035,-0.161 0.035,-0.198C0.035,-0.233 0.041,-0.263 0.054,-0.288C0.067,-0.313 0.084,-0.334 0.106,-0.351C0.127,-0.367 0.151,-0.379 0.176,-0.387C0.201,-0.395 0.226,-0.399 0.251,-0.399C0.292,-0.399 0.327,-0.389 0.357,-0.369C0.386,-0.349 0.409,-0.323 0.424,-0.292C0.44,-0.261 0.448,-0.228 0.448,-0.193C0.448,-0.151 0.438,-0.114 0.418,-0.084C0.398,-0.053 0.372,-0.029 0.34,-0.012C0.307,0.005 0.272,0.013 0.233,0.013ZM0.262,-0.006C0.295,-0.006 0.32,-0.019 0.339,-0.045C0.357,-0.07 0.366,-0.109 0.366,-0.163C0.366,-0.207 0.36,-0.245 0.346,-0.277C0.333,-0.31 0.315,-0.335 0.293,-0.352C0.27,-0.37 0.245,-0.379 0.217,-0.379C0.185,-0.379 0.159,-0.367 0.142,-0.342C0.124,-0.317 0.115,-0.28 0.115,-0.231C0.115,-0.189 0.121,-0.15 0.134,-0.116C0.146,-0.082 0.164,-0.055 0.186,-0.036C0.208,-0.016 0.234,-0.006 0.262,-0.006Z" style="fill:rgb(42,29,22);fill-opacity:0.9;fill-rule:nonzero;"/>
            </g>
            <g transform="matrix(29.166667,0,0,29.166667,151.967701,54.257541)">
                <path d="M0.185,0.009C0.151,0.009 0.124,-0.002 0.105,-0.023C0.085,-0.045 0.075,-0.075 0.075,-0.114L0.075,-0.266C0.075,-0.29 0.073,-0.309 0.068,-0.32C0.064,-0.331 0.056,-0.337 0.045,-0.337C0.036,-0.337 0.026,-0.334 0.014,-0.328C0.011,-0.327 0.009,-0.328 0.008,-0.332C0.006,-0.336 0.006,-0.339 0.009,-0.339L0.127,-0.394C0.128,-0.395 0.13,-0.395 0.131,-0.395C0.133,-0.395 0.136,-0.394 0.139,-0.392C0.141,-0.39 0.143,-0.388 0.143,-0.385L0.143,-0.152C0.143,-0.114 0.15,-0.085 0.164,-0.067C0.177,-0.048 0.198,-0.039 0.226,-0.039C0.25,-0.039 0.274,-0.046 0.298,-0.06C0.321,-0.074 0.341,-0.092 0.358,-0.115L0.363,-0.104C0.335,-0.067 0.306,-0.038 0.277,-0.019C0.248,-0 0.218,0.009 0.185,0.009ZM0.407,-0.385L0.407,-0.11C0.407,-0.087 0.409,-0.071 0.414,-0.061C0.419,-0.051 0.428,-0.046 0.44,-0.046C0.446,-0.046 0.453,-0.047 0.461,-0.05C0.468,-0.052 0.478,-0.055 0.489,-0.06C0.492,-0.061 0.494,-0.06 0.496,-0.056C0.497,-0.052 0.497,-0.05 0.495,-0.049L0.371,0.01C0.37,0.011 0.368,0.011 0.366,0.011C0.361,0.011 0.355,0.004 0.349,-0.011C0.343,-0.026 0.339,-0.048 0.339,-0.076L0.339,-0.266C0.339,-0.29 0.337,-0.309 0.332,-0.32C0.328,-0.331 0.32,-0.337 0.309,-0.337C0.3,-0.337 0.29,-0.334 0.277,-0.328C0.275,-0.327 0.273,-0.328 0.272,-0.332C0.27,-0.336 0.271,-0.339 0.273,-0.339L0.391,-0.394C0.392,-0.395 0.394,-0.395 0.395,-0.395C0.397,-0.395 0.4,-0.394 0.402,-0.392C0.405,-0.39 0.407,-0.388 0.407,-0.385Z" style="fill:rgb(42,29,22);fill-opacity:0.9;fill-rule:nonzero;"/>
            </g>
            <g transform="matrix(29.166667,0,0,29.166667,166.463534,54.257541)">
                <path d="M0.187,0.012C0.171,0.012 0.155,0.009 0.14,0.004C0.125,-0.001 0.112,-0.01 0.102,-0.022C0.093,-0.034 0.088,-0.052 0.088,-0.073L0.088,-0.304C0.088,-0.32 0.087,-0.331 0.084,-0.339C0.081,-0.347 0.076,-0.352 0.069,-0.355C0.062,-0.358 0.051,-0.359 0.036,-0.359C0.034,-0.359 0.033,-0.362 0.033,-0.367C0.033,-0.371 0.034,-0.374 0.036,-0.374C0.066,-0.374 0.089,-0.382 0.108,-0.396C0.126,-0.409 0.137,-0.428 0.142,-0.452C0.143,-0.454 0.145,-0.455 0.15,-0.455C0.155,-0.455 0.157,-0.454 0.157,-0.452L0.157,-0.107C0.157,-0.08 0.164,-0.06 0.178,-0.047C0.191,-0.034 0.21,-0.028 0.234,-0.028C0.25,-0.028 0.266,-0.031 0.279,-0.037C0.293,-0.043 0.304,-0.049 0.313,-0.056C0.316,-0.058 0.318,-0.057 0.32,-0.054C0.323,-0.051 0.323,-0.049 0.32,-0.047C0.295,-0.026 0.273,-0.011 0.252,-0.002C0.232,0.007 0.21,0.012 0.187,0.012ZM0.29,-0.337C0.263,-0.343 0.237,-0.347 0.213,-0.349C0.188,-0.351 0.162,-0.352 0.135,-0.352L0.135,-0.375C0.161,-0.375 0.187,-0.376 0.212,-0.378C0.238,-0.38 0.265,-0.383 0.293,-0.385C0.295,-0.385 0.296,-0.383 0.298,-0.378C0.299,-0.374 0.3,-0.368 0.3,-0.362C0.3,-0.356 0.299,-0.351 0.297,-0.345C0.295,-0.339 0.292,-0.336 0.29,-0.337Z" style="fill:rgb(42,29,22);fill-opacity:0.9;fill-rule:nonzero;"/>
            </g>
            <g transform="matrix(29.166667,0,0,29.166667,176.321868,54.257541)">
            </g>
            <g transform="matrix(29.166667,0,0,29.166667,183.146868,54.257541)">
                <path d="M0.316,0.006C0.313,0.007 0.31,0.008 0.307,0.008C0.297,0.008 0.288,0.001 0.279,-0.014C0.269,-0.029 0.265,-0.051 0.265,-0.079L0.265,-0.262C0.265,-0.303 0.26,-0.333 0.25,-0.351C0.24,-0.368 0.225,-0.377 0.207,-0.377C0.19,-0.377 0.177,-0.373 0.167,-0.364C0.157,-0.355 0.15,-0.344 0.146,-0.333C0.141,-0.321 0.138,-0.31 0.136,-0.3C0.135,-0.288 0.131,-0.277 0.124,-0.268C0.118,-0.259 0.107,-0.255 0.093,-0.255C0.079,-0.255 0.07,-0.258 0.064,-0.265C0.058,-0.271 0.055,-0.279 0.055,-0.287C0.055,-0.301 0.061,-0.314 0.074,-0.327C0.087,-0.34 0.104,-0.351 0.124,-0.362C0.144,-0.372 0.164,-0.381 0.186,-0.387C0.208,-0.393 0.227,-0.396 0.244,-0.396C0.272,-0.396 0.293,-0.387 0.309,-0.37C0.325,-0.352 0.333,-0.326 0.333,-0.292L0.333,-0.108C0.333,-0.086 0.336,-0.07 0.342,-0.059C0.348,-0.048 0.358,-0.043 0.371,-0.043C0.383,-0.043 0.397,-0.046 0.415,-0.054C0.418,-0.055 0.42,-0.054 0.421,-0.051C0.423,-0.047 0.422,-0.044 0.419,-0.043L0.316,0.006ZM0.132,0.007C0.105,0.007 0.085,0 0.071,-0.013C0.058,-0.026 0.051,-0.043 0.051,-0.063C0.051,-0.079 0.055,-0.093 0.064,-0.104C0.072,-0.115 0.085,-0.125 0.101,-0.133C0.118,-0.142 0.138,-0.151 0.161,-0.159L0.275,-0.201L0.278,-0.188L0.187,-0.151C0.177,-0.147 0.168,-0.143 0.159,-0.137C0.151,-0.132 0.144,-0.125 0.139,-0.118C0.134,-0.11 0.131,-0.101 0.131,-0.09C0.131,-0.074 0.137,-0.061 0.147,-0.051C0.157,-0.04 0.17,-0.035 0.186,-0.035C0.192,-0.035 0.199,-0.036 0.205,-0.038C0.212,-0.04 0.22,-0.044 0.229,-0.049L0.288,-0.086L0.29,-0.072L0.217,-0.024C0.201,-0.013 0.187,-0.005 0.174,-0C0.161,0.005 0.147,0.007 0.132,0.007Z" style="fill:rgb(42,29,22);fill-opacity:0.9;fill-rule:nonzero;"/>
            </g>
            <g transform="matrix(29.166667,0,0,29.166667,195.396868,54.257541)">
                <path d="M0.038,-0C0.037,-0 0.036,-0.002 0.036,-0.006C0.036,-0.01 0.037,-0.012 0.038,-0.012C0.063,-0.012 0.079,-0.017 0.087,-0.026C0.094,-0.035 0.098,-0.053 0.098,-0.081L0.099,-0.595C0.099,-0.618 0.097,-0.636 0.092,-0.646C0.088,-0.657 0.08,-0.662 0.068,-0.662C0.058,-0.662 0.044,-0.658 0.025,-0.649C0.022,-0.648 0.02,-0.649 0.018,-0.653C0.017,-0.657 0.017,-0.66 0.019,-0.66L0.153,-0.724C0.154,-0.725 0.155,-0.725 0.157,-0.725C0.159,-0.725 0.162,-0.724 0.165,-0.722C0.167,-0.72 0.169,-0.718 0.169,-0.715L0.169,-0.081C0.169,-0.054 0.172,-0.035 0.18,-0.026C0.187,-0.017 0.204,-0.012 0.228,-0.012C0.231,-0.012 0.232,-0.01 0.232,-0.006C0.232,-0.002 0.231,-0 0.228,-0C0.216,-0 0.202,-0 0.185,-0.001C0.169,-0.002 0.151,-0.002 0.133,-0.002C0.115,-0.002 0.098,-0.002 0.082,-0.001C0.065,-0 0.051,-0 0.038,-0Z" style="fill:rgb(42,29,22);fill-opacity:0.9;fill-rule:nonzero;"/>
            </g>
            <g transform="matrix(29.166667,0,0,29.166667,203.009368,54.257541)">
                <path d="M0.038,-0C0.037,-0 0.036,-0.002 0.036,-0.006C0.036,-0.01 0.037,-0.012 0.038,-0.012C0.063,-0.012 0.079,-0.017 0.087,-0.026C0.094,-0.035 0.098,-0.053 0.098,-0.081L0.099,-0.595C0.099,-0.618 0.097,-0.636 0.092,-0.646C0.088,-0.657 0.08,-0.662 0.068,-0.662C0.058,-0.662 0.044,-0.658 0.025,-0.649C0.022,-0.648 0.02,-0.649 0.018,-0.653C0.017,-0.657 0.017,-0.66 0.019,-0.66L0.153,-0.724C0.154,-0.725 0.155,-0.725 0.157,-0.725C0.159,-0.725 0.162,-0.724 0.165,-0.722C0.167,-0.72 0.169,-0.718 0.169,-0.715L0.169,-0.081C0.169,-0.054 0.172,-0.035 0.18,-0.026C0.187,-0.017 0.204,-0.012 0.228,-0.012C0.231,-0.012 0.232,-0.01 0.232,-0.006C0.232,-0.002 0.231,-0 0.228,-0C0.216,-0 0.202,-0 0.185,-0.001C0.169,-0.002 0.151,-0.002 0.133,-0.002C0.115,-0.002 0.098,-0.002 0.082,-0.001C0.065,-0 0.051,-0 0.038,-0Z" style="fill:rgb(42,29,22);fill-opacity:0.9;fill-rule:nonzero;"/>
            </g>
            <g transform="matrix(29.166667,0,0,29.166667,210.621868,54.257541)">
            </g>
            <g transform="matrix(29.166667,0,0,29.166667,217.446868,54.257541)">
                <path d="M0.187,0.012C0.171,0.012 0.155,0.009 0.14,0.004C0.125,-0.001 0.112,-0.01 0.102,-0.022C0.093,-0.034 0.088,-0.052 0.088,-0.073L0.088,-0.304C0.088,-0.32 0.087,-0.331 0.084,-0.339C0.081,-0.347 0.076,-0.352 0.069,-0.355C0.062,-0.358 0.051,-0.359 0.036,-0.359C0.034,-0.359 0.033,-0.362 0.033,-0.367C0.033,-0.371 0.034,-0.374 0.036,-0.374C0.066,-0.374 0.089,-0.382 0.108,-0.396C0.126,-0.409 0.137,-0.428 0.142,-0.452C0.143,-0.454 0.145,-0.455 0.15,-0.455C0.155,-0.455 0.157,-0.454 0.157,-0.452L0.157,-0.107C0.157,-0.08 0.164,-0.06 0.178,-0.047C0.191,-0.034 0.21,-0.028 0.234,-0.028C0.25,-0.028 0.266,-0.031 0.279,-0.037C0.293,-0.043 0.304,-0.049 0.313,-0.056C0.316,-0.058 0.318,-0.057 0.32,-0.054C0.323,-0.051 0.323,-0.049 0.32,-0.047C0.295,-0.026 0.273,-0.011 0.252,-0.002C0.232,0.007 0.21,0.012 0.187,0.012ZM0.29,-0.337C0.263,-0.343 0.237,-0.347 0.213,-0.349C0.188,-0.351 0.162,-0.352 0.135,-0.352L0.135,-0.375C0.161,-0.375 0.187,-0.376 0.212,-0.378C0.238,-0.38 0.265,-0.383 0.293,-0.385C0.295,-0.385 0.296,-0.383 0.298,-0.378C0.299,-0.374 0.3,-0.368 0.3,-0.362C0.3,-0.356 0.299,-0.351 0.297,-0.345C0.295,-0.339 0.292,-0.336 0.29,-0.337Z" style="fill:rgb(42,29,22);fill-opacity:0.9;fill-rule:nonzero;"/>
            </g>
            <g transform="matrix(29.166667,0,0,29.166667,227.305201,54.257541)">
                <path d="M0.024,-0C0.023,-0 0.022,-0.002 0.022,-0.006C0.022,-0.01 0.023,-0.012 0.024,-0.012C0.049,-0.012 0.065,-0.017 0.073,-0.026C0.08,-0.035 0.084,-0.053 0.084,-0.081L0.084,-0.595C0.084,-0.618 0.082,-0.636 0.078,-0.646C0.073,-0.657 0.065,-0.662 0.054,-0.662C0.044,-0.662 0.029,-0.658 0.01,-0.649C0.008,-0.648 0.006,-0.649 0.004,-0.653C0.002,-0.657 0.002,-0.659 0.004,-0.66L0.138,-0.725C0.139,-0.725 0.139,-0.725 0.14,-0.725L0.141,-0.725C0.144,-0.725 0.146,-0.724 0.148,-0.722C0.151,-0.72 0.152,-0.718 0.152,-0.715L0.152,-0.081C0.152,-0.053 0.156,-0.035 0.164,-0.026C0.172,-0.017 0.188,-0.012 0.213,-0.012C0.215,-0.012 0.216,-0.01 0.216,-0.006C0.216,-0.002 0.215,-0 0.213,-0C0.2,-0 0.186,-0 0.17,-0.001C0.154,-0.002 0.137,-0.002 0.119,-0.002C0.101,-0.002 0.084,-0.002 0.067,-0.001C0.051,-0 0.037,-0 0.024,-0ZM0.293,-0C0.292,-0 0.291,-0.002 0.291,-0.006C0.291,-0.01 0.292,-0.012 0.293,-0.012C0.318,-0.012 0.334,-0.017 0.342,-0.026C0.349,-0.035 0.353,-0.053 0.353,-0.081L0.353,-0.235C0.353,-0.311 0.324,-0.349 0.265,-0.349C0.241,-0.349 0.218,-0.342 0.194,-0.328C0.17,-0.314 0.15,-0.295 0.134,-0.272L0.129,-0.284C0.157,-0.321 0.185,-0.35 0.214,-0.369C0.243,-0.387 0.274,-0.397 0.306,-0.397C0.342,-0.397 0.371,-0.386 0.391,-0.365C0.411,-0.344 0.421,-0.313 0.421,-0.274L0.421,-0.081C0.421,-0.053 0.425,-0.035 0.433,-0.026C0.441,-0.017 0.457,-0.012 0.482,-0.012C0.484,-0.012 0.485,-0.01 0.485,-0.006C0.485,-0.002 0.484,-0 0.482,-0C0.469,-0 0.455,-0 0.439,-0.001C0.423,-0.002 0.406,-0.002 0.388,-0.002C0.37,-0.002 0.353,-0.002 0.336,-0.001C0.32,-0 0.306,-0 0.293,-0Z" style="fill:rgb(42,29,22);fill-opacity:0.9;fill-rule:nonzero;"/>
            </g>
            <g transform="matrix(29.166667,0,0,29.166667,241.946868,54.257541)">
                <path d="M0.224,0.012C0.183,0.012 0.148,0.003 0.12,-0.015C0.092,-0.033 0.071,-0.057 0.056,-0.087C0.042,-0.116 0.035,-0.148 0.035,-0.181C0.035,-0.221 0.044,-0.257 0.063,-0.289C0.082,-0.321 0.108,-0.347 0.141,-0.366C0.173,-0.385 0.21,-0.395 0.25,-0.395C0.289,-0.395 0.319,-0.385 0.34,-0.366C0.36,-0.346 0.371,-0.318 0.371,-0.281C0.371,-0.272 0.37,-0.265 0.369,-0.26C0.367,-0.255 0.364,-0.253 0.359,-0.253L0.29,-0.253C0.293,-0.293 0.288,-0.323 0.275,-0.344C0.262,-0.365 0.242,-0.375 0.216,-0.375C0.183,-0.375 0.158,-0.361 0.139,-0.333C0.121,-0.305 0.112,-0.268 0.112,-0.22C0.112,-0.182 0.118,-0.149 0.13,-0.12C0.142,-0.091 0.159,-0.068 0.183,-0.052C0.206,-0.036 0.234,-0.028 0.268,-0.028C0.29,-0.028 0.308,-0.031 0.322,-0.037C0.337,-0.043 0.352,-0.05 0.367,-0.059C0.368,-0.06 0.37,-0.06 0.372,-0.057C0.375,-0.054 0.375,-0.051 0.374,-0.049C0.35,-0.027 0.326,-0.012 0.301,-0.002C0.276,0.007 0.251,0.012 0.224,0.012ZM0.089,-0.252L0.088,-0.267L0.312,-0.271L0.312,-0.253L0.089,-0.252Z" style="fill:rgb(42,29,22);fill-opacity:0.9;fill-rule:nonzero;"/>
            </g>
            <g transform="matrix(29.166667,0,0,29.166667,253.934368,54.257541)">
            </g>
        </g>
        <g transform="matrix(0.9,0,0,1,24.326812,0)">
            <g transform="matrix(29.166667,0,0,29.166667,243.268118,54.257541)">
                <path d="M-0.06,0.275C-0.063,0.276 -0.064,0.274 -0.065,0.27C-0.066,0.266 -0.065,0.264 -0.062,0.263C-0.048,0.26 -0.037,0.256 -0.03,0.252C-0.023,0.248 -0.018,0.241 -0.014,0.231C-0.01,0.22 -0.007,0.205 -0.003,0.185L0.099,-0.386C0.099,-0.388 0.101,-0.391 0.107,-0.395C0.113,-0.399 0.12,-0.405 0.128,-0.411C0.136,-0.417 0.143,-0.425 0.15,-0.433C0.156,-0.441 0.161,-0.451 0.163,-0.461C0.164,-0.463 0.166,-0.464 0.17,-0.464C0.173,-0.463 0.175,-0.461 0.174,-0.459L0.061,0.178C0.056,0.205 0.058,0.222 0.065,0.23C0.072,0.238 0.089,0.24 0.115,0.236C0.118,0.236 0.12,0.237 0.121,0.241C0.122,0.244 0.121,0.247 0.118,0.247L-0.06,0.275ZM0.145,0.001C0.123,0.001 0.105,0 0.091,-0.002C0.078,-0.004 0.066,-0.006 0.057,-0.008L0.067,-0.063C0.08,-0.054 0.095,-0.046 0.113,-0.038C0.13,-0.031 0.151,-0.028 0.176,-0.028C0.203,-0.028 0.227,-0.036 0.245,-0.053C0.264,-0.07 0.279,-0.093 0.291,-0.122C0.303,-0.151 0.311,-0.184 0.315,-0.22C0.318,-0.242 0.318,-0.264 0.315,-0.284C0.312,-0.304 0.305,-0.321 0.293,-0.333C0.281,-0.346 0.261,-0.353 0.235,-0.353C0.204,-0.353 0.173,-0.344 0.142,-0.328C0.111,-0.311 0.076,-0.288 0.035,-0.257C0.033,-0.256 0.031,-0.256 0.028,-0.26C0.026,-0.263 0.026,-0.265 0.028,-0.267C0.069,-0.302 0.111,-0.332 0.155,-0.356C0.2,-0.381 0.243,-0.393 0.285,-0.393C0.323,-0.393 0.351,-0.381 0.367,-0.357C0.384,-0.333 0.389,-0.298 0.382,-0.253C0.377,-0.219 0.367,-0.187 0.352,-0.156C0.337,-0.125 0.318,-0.098 0.296,-0.074C0.274,-0.051 0.25,-0.032 0.224,-0.019C0.198,-0.006 0.172,0.001 0.145,0.001Z" style="fill:rgb(42,29,22);fill-opacity:0.9;fill-rule:nonzero;"/>
            </g>
            <g transform="matrix(29.166667,0,0,29.166667,255.109784,54.257541)">
                <path d="M0.081,0.013C0.059,0.013 0.043,0.005 0.031,-0.011C0.019,-0.027 0.015,-0.054 0.02,-0.091C0.025,-0.126 0.037,-0.162 0.055,-0.198C0.073,-0.234 0.095,-0.268 0.12,-0.298C0.146,-0.328 0.174,-0.353 0.203,-0.371C0.232,-0.39 0.261,-0.399 0.287,-0.399C0.3,-0.399 0.313,-0.397 0.325,-0.392C0.338,-0.387 0.348,-0.38 0.357,-0.369C0.367,-0.359 0.372,-0.345 0.373,-0.328L0.325,-0.357C0.334,-0.358 0.345,-0.364 0.356,-0.373C0.367,-0.383 0.376,-0.394 0.381,-0.407C0.382,-0.409 0.384,-0.41 0.388,-0.409C0.392,-0.408 0.393,-0.406 0.393,-0.405L0.335,-0.089C0.328,-0.053 0.333,-0.034 0.348,-0.034C0.356,-0.034 0.365,-0.038 0.376,-0.046C0.386,-0.054 0.398,-0.064 0.411,-0.077C0.413,-0.079 0.415,-0.079 0.418,-0.076C0.421,-0.073 0.421,-0.071 0.419,-0.069C0.398,-0.044 0.378,-0.025 0.36,-0.011C0.342,0.002 0.324,0.009 0.307,0.009C0.289,0.009 0.277,0.002 0.272,-0.013C0.266,-0.028 0.267,-0.054 0.273,-0.089L0.297,-0.229L0.316,-0.246C0.297,-0.194 0.275,-0.149 0.248,-0.11C0.222,-0.071 0.194,-0.041 0.166,-0.019C0.137,0.002 0.109,0.013 0.081,0.013ZM0.126,-0.044C0.144,-0.044 0.162,-0.05 0.181,-0.064C0.2,-0.078 0.218,-0.097 0.235,-0.119C0.252,-0.142 0.266,-0.166 0.279,-0.193C0.291,-0.219 0.3,-0.245 0.304,-0.27C0.31,-0.296 0.308,-0.317 0.298,-0.334C0.288,-0.351 0.271,-0.36 0.248,-0.359C0.226,-0.359 0.204,-0.349 0.182,-0.331C0.16,-0.312 0.14,-0.287 0.123,-0.255C0.106,-0.224 0.094,-0.188 0.088,-0.147C0.082,-0.111 0.083,-0.085 0.09,-0.068C0.097,-0.052 0.109,-0.044 0.126,-0.044Z" style="fill:rgb(42,29,22);fill-opacity:0.9;fill-rule:nonzero;"/>
            </g>
            <g transform="matrix(29.166667,0,0,29.166667,267.855618,54.257541)">
                <path d="M0.108,0.009C0.09,0.009 0.078,0.002 0.073,-0.013C0.067,-0.028 0.068,-0.053 0.075,-0.089L0.116,-0.297C0.123,-0.334 0.118,-0.353 0.099,-0.353C0.092,-0.353 0.083,-0.349 0.071,-0.342C0.06,-0.334 0.048,-0.323 0.034,-0.309C0.032,-0.306 0.029,-0.306 0.026,-0.309C0.024,-0.312 0.023,-0.315 0.026,-0.317C0.049,-0.344 0.07,-0.364 0.089,-0.376C0.108,-0.389 0.126,-0.395 0.143,-0.395C0.162,-0.395 0.174,-0.388 0.179,-0.373C0.184,-0.358 0.183,-0.335 0.177,-0.302L0.136,-0.089C0.132,-0.069 0.132,-0.055 0.135,-0.047C0.139,-0.038 0.144,-0.034 0.151,-0.034C0.159,-0.034 0.168,-0.038 0.178,-0.045C0.189,-0.053 0.201,-0.063 0.214,-0.076C0.217,-0.079 0.219,-0.078 0.222,-0.076C0.225,-0.073 0.225,-0.07 0.222,-0.068C0.201,-0.043 0.181,-0.024 0.163,-0.011C0.145,0.002 0.126,0.009 0.108,0.009ZM0.172,-0.509C0.158,-0.509 0.146,-0.513 0.138,-0.521C0.129,-0.529 0.125,-0.541 0.125,-0.556C0.125,-0.57 0.129,-0.581 0.138,-0.589C0.146,-0.597 0.158,-0.601 0.172,-0.601C0.187,-0.601 0.199,-0.597 0.207,-0.589C0.215,-0.581 0.219,-0.57 0.219,-0.556C0.219,-0.525 0.203,-0.509 0.172,-0.509Z" style="fill:rgb(42,29,22);fill-opacity:0.9;fill-rule:nonzero;"/>
            </g>
            <g transform="matrix(29.166667,0,0,29.166667,275.059784,54.257541)">
                <path d="M0.337,0.009C0.319,0.009 0.307,0.001 0.302,-0.014C0.297,-0.029 0.298,-0.054 0.304,-0.089L0.333,-0.248C0.347,-0.319 0.336,-0.355 0.3,-0.355C0.279,-0.355 0.258,-0.341 0.235,-0.314C0.212,-0.288 0.191,-0.248 0.171,-0.197C0.151,-0.145 0.134,-0.083 0.121,-0.009L0.107,-0.01C0.121,-0.088 0.139,-0.156 0.162,-0.215C0.185,-0.273 0.212,-0.318 0.243,-0.351C0.273,-0.383 0.305,-0.399 0.338,-0.399C0.366,-0.399 0.386,-0.389 0.396,-0.368C0.406,-0.347 0.407,-0.313 0.398,-0.267L0.365,-0.089C0.362,-0.069 0.362,-0.055 0.365,-0.047C0.368,-0.038 0.373,-0.034 0.381,-0.034C0.388,-0.034 0.397,-0.038 0.408,-0.046C0.418,-0.054 0.43,-0.064 0.443,-0.077C0.445,-0.08 0.447,-0.08 0.45,-0.077C0.453,-0.074 0.453,-0.072 0.451,-0.069C0.429,-0.044 0.41,-0.025 0.392,-0.011C0.374,0.002 0.356,0.009 0.337,0.009ZM0.082,0.008C0.071,0.008 0.064,0.007 0.061,0.006C0.057,0.005 0.055,0.003 0.055,0.001C0.055,-0.001 0.057,-0.01 0.061,-0.025C0.064,-0.04 0.068,-0.057 0.07,-0.074L0.111,-0.297C0.118,-0.334 0.112,-0.353 0.095,-0.353C0.088,-0.353 0.078,-0.349 0.067,-0.342C0.056,-0.334 0.043,-0.323 0.029,-0.309C0.027,-0.306 0.025,-0.306 0.022,-0.309C0.019,-0.312 0.019,-0.315 0.021,-0.317C0.044,-0.344 0.065,-0.364 0.085,-0.376C0.104,-0.389 0.122,-0.395 0.14,-0.395C0.158,-0.395 0.169,-0.388 0.174,-0.373C0.179,-0.358 0.179,-0.335 0.173,-0.302L0.121,-0.009C0.119,0.002 0.106,0.008 0.082,0.008Z" style="fill:rgb(42,29,22);fill-opacity:0.9;fill-rule:nonzero;"/>
            </g>
            <g transform="matrix(29.166667,0,0,29.166667,288.709784,54.257541)">
                <path d="M-0.038,0.275C-0.064,0.275 -0.083,0.27 -0.095,0.26C-0.107,0.251 -0.112,0.24 -0.11,0.227C-0.108,0.217 -0.104,0.209 -0.097,0.203C-0.089,0.197 -0.081,0.194 -0.07,0.194C-0.058,0.194 -0.049,0.197 -0.044,0.203C-0.039,0.209 -0.036,0.217 -0.034,0.225C-0.033,0.233 -0.03,0.241 -0.028,0.247C-0.025,0.253 -0.019,0.256 -0.011,0.256C-0.003,0.256 0.003,0.251 0.008,0.241C0.014,0.231 0.019,0.211 0.025,0.181C0.031,0.151 0.038,0.106 0.047,0.047L0.098,-0.306C0.1,-0.323 0.101,-0.335 0.099,-0.342C0.098,-0.35 0.092,-0.355 0.084,-0.357C0.076,-0.359 0.062,-0.36 0.044,-0.36C0.042,-0.36 0.041,-0.362 0.041,-0.367C0.042,-0.372 0.043,-0.374 0.045,-0.374C0.068,-0.374 0.085,-0.377 0.095,-0.383C0.105,-0.39 0.111,-0.401 0.114,-0.418C0.124,-0.479 0.135,-0.529 0.146,-0.569C0.158,-0.609 0.171,-0.64 0.187,-0.663C0.203,-0.686 0.222,-0.702 0.243,-0.712C0.265,-0.721 0.291,-0.726 0.321,-0.726C0.347,-0.726 0.366,-0.721 0.38,-0.71C0.394,-0.699 0.4,-0.687 0.398,-0.672C0.396,-0.661 0.391,-0.653 0.384,-0.647C0.376,-0.642 0.368,-0.639 0.358,-0.639C0.346,-0.639 0.337,-0.643 0.331,-0.65C0.326,-0.657 0.322,-0.665 0.32,-0.674C0.318,-0.683 0.314,-0.691 0.311,-0.698C0.307,-0.705 0.3,-0.709 0.289,-0.709C0.265,-0.709 0.244,-0.686 0.226,-0.641C0.208,-0.595 0.193,-0.528 0.18,-0.439L0.113,0.021C0.103,0.085 0.092,0.135 0.08,0.172C0.067,0.209 0.052,0.236 0.033,0.252C0.014,0.267 -0.01,0.275 -0.038,0.275ZM0.245,-0.341C0.24,-0.342 0.231,-0.343 0.219,-0.345C0.207,-0.347 0.193,-0.348 0.178,-0.35C0.163,-0.351 0.148,-0.352 0.133,-0.352L0.135,-0.376C0.149,-0.376 0.166,-0.377 0.186,-0.378C0.205,-0.38 0.223,-0.381 0.239,-0.382C0.256,-0.383 0.266,-0.384 0.271,-0.384C0.274,-0.384 0.277,-0.383 0.278,-0.381C0.279,-0.379 0.279,-0.377 0.278,-0.374C0.277,-0.369 0.273,-0.362 0.266,-0.353C0.259,-0.344 0.252,-0.34 0.245,-0.341Z" style="fill:rgb(42,29,22);fill-opacity:0.9;fill-rule:nonzero;"/>
            </g>
            <g transform="matrix(29.166667,0,0,29.166667,296.409784,54.257541)">
                <path d="M0.13,0.013C0.102,0.013 0.082,0.002 0.072,-0.019C0.061,-0.04 0.061,-0.073 0.07,-0.119L0.106,-0.297C0.109,-0.317 0.11,-0.331 0.106,-0.339C0.103,-0.348 0.098,-0.352 0.09,-0.352C0.083,-0.352 0.075,-0.348 0.064,-0.34C0.054,-0.332 0.042,-0.322 0.029,-0.309C0.026,-0.306 0.024,-0.306 0.021,-0.309C0.018,-0.312 0.018,-0.314 0.021,-0.317C0.043,-0.342 0.063,-0.362 0.08,-0.375C0.098,-0.388 0.116,-0.395 0.134,-0.395C0.151,-0.395 0.163,-0.388 0.169,-0.373C0.175,-0.358 0.174,-0.333 0.167,-0.297L0.135,-0.138C0.127,-0.102 0.126,-0.075 0.133,-0.057C0.139,-0.04 0.151,-0.031 0.169,-0.031C0.189,-0.031 0.211,-0.045 0.234,-0.072C0.256,-0.098 0.277,-0.138 0.297,-0.189C0.317,-0.241 0.334,-0.303 0.347,-0.377L0.361,-0.376C0.348,-0.298 0.33,-0.23 0.306,-0.172C0.283,-0.113 0.256,-0.068 0.226,-0.035C0.196,-0.003 0.164,0.013 0.13,0.013ZM0.329,0.009C0.311,0.009 0.299,0.002 0.294,-0.013C0.289,-0.028 0.29,-0.051 0.296,-0.084L0.347,-0.377C0.349,-0.388 0.363,-0.394 0.387,-0.394C0.397,-0.394 0.405,-0.393 0.408,-0.392C0.411,-0.39 0.413,-0.389 0.413,-0.387C0.413,-0.385 0.411,-0.376 0.408,-0.361C0.405,-0.346 0.401,-0.329 0.398,-0.312L0.357,-0.089C0.351,-0.052 0.356,-0.033 0.373,-0.033C0.381,-0.033 0.39,-0.037 0.401,-0.044C0.413,-0.052 0.425,-0.063 0.439,-0.077C0.441,-0.08 0.443,-0.08 0.446,-0.077C0.449,-0.074 0.449,-0.071 0.447,-0.069C0.424,-0.042 0.403,-0.022 0.384,-0.01C0.365,0.003 0.347,0.009 0.329,0.009Z" style="fill:rgb(42,29,22);fill-opacity:0.9;fill-rule:nonzero;"/>
            </g>
            <g transform="matrix(29.166667,0,0,29.166667,310.059784,54.257541)">
                <path d="M0.092,0.009C0.073,0.009 0.061,0.001 0.056,-0.014C0.051,-0.029 0.052,-0.054 0.058,-0.089L0.155,-0.61C0.159,-0.636 0.157,-0.652 0.148,-0.659C0.139,-0.665 0.12,-0.661 0.091,-0.646C0.088,-0.645 0.086,-0.647 0.084,-0.651C0.083,-0.655 0.083,-0.657 0.086,-0.658L0.223,-0.725C0.226,-0.726 0.229,-0.726 0.232,-0.723C0.235,-0.72 0.236,-0.718 0.235,-0.717L0.12,-0.089C0.116,-0.069 0.115,-0.055 0.119,-0.047C0.122,-0.038 0.128,-0.034 0.135,-0.034C0.142,-0.034 0.151,-0.038 0.162,-0.046C0.172,-0.054 0.184,-0.064 0.197,-0.077C0.199,-0.08 0.202,-0.08 0.205,-0.077C0.207,-0.074 0.207,-0.072 0.205,-0.069C0.183,-0.044 0.164,-0.025 0.146,-0.011C0.128,0.002 0.11,0.009 0.092,0.009Z" style="fill:rgb(42,29,22);fill-opacity:0.9;fill-rule:nonzero;"/>
            </g>
            <g transform="matrix(29.166667,0,0,29.166667,317.059784,54.257541)">
            </g>
        </g>
    </g>
    <g transform="matrix(1,0,0,1,-72.506562,80.17402)">
        <g transform="matrix(0.9,0,0,1.04,8.584687,-2.170302)">
            <g transform="matrix(41.666667,0,0,41.666667,85.846868,54.257541)">
                <path d="M0.263,0.013C0.235,0.013 0.208,0.008 0.181,-0.002C0.155,-0.011 0.13,-0.026 0.108,-0.046L0.166,-0.153C0.166,-0.117 0.173,-0.088 0.187,-0.066C0.201,-0.045 0.217,-0.029 0.237,-0.02C0.256,-0.011 0.274,-0.007 0.289,-0.007C0.322,-0.007 0.347,-0.021 0.364,-0.051C0.381,-0.081 0.39,-0.122 0.39,-0.176C0.39,-0.237 0.379,-0.281 0.358,-0.31C0.336,-0.339 0.308,-0.353 0.274,-0.353C0.251,-0.353 0.229,-0.347 0.209,-0.336C0.189,-0.324 0.17,-0.311 0.153,-0.295L0.144,-0.303C0.158,-0.318 0.173,-0.332 0.19,-0.347C0.206,-0.362 0.225,-0.374 0.245,-0.384C0.266,-0.394 0.29,-0.399 0.316,-0.399C0.345,-0.399 0.372,-0.392 0.397,-0.379C0.421,-0.365 0.441,-0.344 0.457,-0.317C0.472,-0.29 0.48,-0.255 0.48,-0.213C0.48,-0.163 0.47,-0.121 0.448,-0.088C0.427,-0.054 0.4,-0.029 0.367,-0.012C0.334,0.005 0.299,0.013 0.263,0.013ZM0.038,0.006C0.035,0.007 0.033,0.006 0.032,0.003C0.03,-0 0.031,-0.002 0.033,-0.003C0.05,-0.014 0.063,-0.026 0.072,-0.041C0.081,-0.056 0.085,-0.076 0.085,-0.103L0.085,-0.592C0.085,-0.615 0.083,-0.632 0.079,-0.642C0.074,-0.653 0.066,-0.658 0.055,-0.658C0.045,-0.658 0.032,-0.654 0.015,-0.646C0.012,-0.645 0.01,-0.647 0.008,-0.651C0.007,-0.655 0.007,-0.657 0.008,-0.658L0.147,-0.724C0.149,-0.725 0.151,-0.725 0.152,-0.725C0.155,-0.725 0.158,-0.724 0.161,-0.721C0.164,-0.719 0.166,-0.716 0.166,-0.714L0.166,-0.053L0.038,0.006Z" style="fill:rgb(51,36,27);fill-rule:nonzero;"/>
            </g>
            <g transform="matrix(41.666667,0,0,41.666667,107.263534,54.257541)">
                <path d="M0.317,0.006C0.315,0.007 0.312,0.008 0.308,0.008C0.297,0.008 0.286,0 0.276,-0.015C0.265,-0.031 0.26,-0.053 0.26,-0.082L0.26,-0.258C0.26,-0.3 0.256,-0.33 0.247,-0.349C0.239,-0.368 0.226,-0.377 0.208,-0.377C0.191,-0.377 0.178,-0.372 0.169,-0.363C0.16,-0.353 0.154,-0.342 0.15,-0.33C0.146,-0.317 0.144,-0.307 0.143,-0.298C0.141,-0.281 0.136,-0.268 0.128,-0.26C0.12,-0.251 0.108,-0.247 0.092,-0.247C0.077,-0.247 0.066,-0.25 0.059,-0.257C0.052,-0.264 0.049,-0.273 0.049,-0.282C0.049,-0.297 0.056,-0.311 0.069,-0.325C0.083,-0.338 0.1,-0.35 0.121,-0.361C0.142,-0.372 0.164,-0.38 0.187,-0.387C0.209,-0.393 0.23,-0.396 0.247,-0.396C0.275,-0.396 0.297,-0.387 0.315,-0.37C0.332,-0.352 0.341,-0.325 0.341,-0.288L0.341,-0.108C0.341,-0.087 0.344,-0.072 0.351,-0.061C0.357,-0.05 0.367,-0.045 0.38,-0.045C0.39,-0.045 0.403,-0.048 0.416,-0.054C0.419,-0.055 0.421,-0.054 0.423,-0.051C0.425,-0.047 0.424,-0.044 0.42,-0.043L0.317,0.006ZM0.129,0.007C0.101,0.007 0.08,0 0.066,-0.013C0.052,-0.026 0.046,-0.043 0.045,-0.064C0.046,-0.083 0.051,-0.098 0.061,-0.11C0.071,-0.121 0.085,-0.131 0.103,-0.138C0.121,-0.146 0.141,-0.154 0.163,-0.162L0.27,-0.202L0.273,-0.187L0.2,-0.156C0.192,-0.153 0.183,-0.149 0.174,-0.144C0.165,-0.139 0.157,-0.133 0.15,-0.125C0.144,-0.117 0.141,-0.107 0.141,-0.093C0.141,-0.077 0.146,-0.064 0.157,-0.055C0.168,-0.045 0.18,-0.041 0.193,-0.041C0.199,-0.041 0.205,-0.041 0.211,-0.043C0.217,-0.045 0.224,-0.048 0.232,-0.053L0.286,-0.089L0.287,-0.074L0.216,-0.024C0.201,-0.013 0.187,-0.005 0.174,-0C0.16,0.005 0.146,0.007 0.129,0.007Z" style="fill:rgb(51,36,27);fill-rule:nonzero;"/>
            </g>
            <g transform="matrix(41.666667,0,0,41.666667,124.763534,54.257541)">
                <path d="M0.233,0.012C0.187,0.012 0.149,0.002 0.12,-0.018C0.09,-0.037 0.069,-0.062 0.054,-0.093C0.04,-0.123 0.033,-0.154 0.033,-0.186C0.033,-0.219 0.04,-0.249 0.054,-0.275C0.067,-0.301 0.086,-0.323 0.108,-0.34C0.13,-0.358 0.155,-0.372 0.183,-0.381C0.21,-0.39 0.237,-0.395 0.263,-0.395C0.282,-0.395 0.301,-0.392 0.32,-0.387C0.339,-0.381 0.355,-0.373 0.367,-0.363C0.379,-0.353 0.385,-0.34 0.385,-0.325C0.385,-0.315 0.381,-0.305 0.373,-0.296C0.365,-0.288 0.353,-0.284 0.337,-0.284C0.323,-0.284 0.311,-0.288 0.303,-0.296C0.294,-0.303 0.287,-0.314 0.282,-0.328C0.277,-0.343 0.27,-0.354 0.263,-0.362C0.256,-0.37 0.244,-0.374 0.226,-0.374C0.194,-0.374 0.169,-0.36 0.151,-0.331C0.133,-0.302 0.124,-0.264 0.124,-0.218C0.124,-0.184 0.129,-0.153 0.14,-0.125C0.15,-0.097 0.167,-0.074 0.19,-0.057C0.214,-0.04 0.245,-0.032 0.283,-0.032C0.302,-0.032 0.32,-0.034 0.334,-0.039C0.349,-0.044 0.365,-0.051 0.381,-0.061C0.383,-0.062 0.384,-0.061 0.387,-0.059C0.389,-0.056 0.39,-0.054 0.388,-0.053C0.365,-0.031 0.341,-0.015 0.317,-0.004C0.293,0.007 0.265,0.012 0.233,0.012Z" style="fill:rgb(51,36,27);fill-rule:nonzero;"/>
            </g>
            <g transform="matrix(41.666667,0,0,41.666667,142.263534,54.257541)">
                <path d="M0.023,-0C0.021,-0 0.02,-0.002 0.02,-0.006C0.02,-0.01 0.021,-0.012 0.023,-0.012C0.045,-0.012 0.06,-0.017 0.068,-0.026C0.076,-0.035 0.08,-0.054 0.08,-0.081L0.08,-0.592C0.08,-0.615 0.078,-0.632 0.073,-0.642C0.069,-0.653 0.061,-0.658 0.05,-0.658C0.04,-0.658 0.027,-0.654 0.009,-0.646C0.007,-0.645 0.005,-0.647 0.003,-0.651C0.001,-0.655 0.001,-0.657 0.003,-0.658L0.142,-0.724C0.143,-0.725 0.145,-0.725 0.146,-0.725C0.149,-0.725 0.152,-0.724 0.155,-0.721C0.158,-0.719 0.16,-0.716 0.16,-0.714L0.16,-0.081C0.16,-0.054 0.164,-0.035 0.172,-0.026C0.179,-0.017 0.195,-0.012 0.217,-0.012C0.22,-0.012 0.221,-0.01 0.221,-0.006C0.221,-0.002 0.22,-0 0.217,-0C0.204,-0 0.19,-0 0.173,-0.001C0.157,-0.002 0.139,-0.002 0.12,-0.002C0.102,-0.002 0.084,-0.002 0.067,-0.001C0.05,-0 0.035,-0 0.023,-0ZM0.274,-0C0.273,-0 0.272,-0.002 0.272,-0.006C0.272,-0.01 0.273,-0.012 0.274,-0.012C0.294,-0.012 0.307,-0.016 0.312,-0.023C0.318,-0.031 0.316,-0.041 0.307,-0.053L0.184,-0.214L0.244,-0.26L0.381,-0.081C0.4,-0.056 0.419,-0.038 0.437,-0.028C0.455,-0.017 0.474,-0.012 0.492,-0.012C0.494,-0.012 0.495,-0.01 0.495,-0.006C0.495,-0.002 0.494,-0 0.492,-0C0.479,-0 0.465,-0 0.448,-0.001C0.431,-0.002 0.413,-0.002 0.395,-0.002C0.369,-0.002 0.346,-0.002 0.327,-0.001C0.308,-0 0.29,-0 0.274,-0ZM0.13,-0.155L0.125,-0.17L0.267,-0.299C0.288,-0.317 0.298,-0.334 0.295,-0.35C0.292,-0.366 0.277,-0.374 0.251,-0.374C0.249,-0.374 0.248,-0.376 0.248,-0.38C0.248,-0.384 0.249,-0.386 0.251,-0.386C0.268,-0.386 0.285,-0.386 0.302,-0.385C0.319,-0.384 0.342,-0.384 0.371,-0.384C0.398,-0.384 0.419,-0.384 0.435,-0.385C0.451,-0.386 0.466,-0.386 0.48,-0.386C0.482,-0.386 0.483,-0.384 0.483,-0.38C0.483,-0.376 0.482,-0.374 0.48,-0.374C0.464,-0.374 0.445,-0.371 0.424,-0.366C0.402,-0.361 0.38,-0.352 0.357,-0.34C0.334,-0.328 0.312,-0.313 0.291,-0.294L0.13,-0.155Z" style="fill:rgb(51,36,27);fill-rule:nonzero;"/>
            </g>
            <g transform="matrix(41.666667,0,0,41.666667,162.721868,54.257541)">
            </g>
            <g transform="matrix(41.666667,0,0,41.666667,172.471868,54.257541)">
                <path d="M0.317,0.006C0.315,0.007 0.312,0.008 0.308,0.008C0.297,0.008 0.286,0 0.276,-0.015C0.265,-0.031 0.26,-0.053 0.26,-0.082L0.26,-0.258C0.26,-0.3 0.256,-0.33 0.247,-0.349C0.239,-0.368 0.226,-0.377 0.208,-0.377C0.191,-0.377 0.178,-0.372 0.169,-0.363C0.16,-0.353 0.154,-0.342 0.15,-0.33C0.146,-0.317 0.144,-0.307 0.143,-0.298C0.141,-0.281 0.136,-0.268 0.128,-0.26C0.12,-0.251 0.108,-0.247 0.092,-0.247C0.077,-0.247 0.066,-0.25 0.059,-0.257C0.052,-0.264 0.049,-0.273 0.049,-0.282C0.049,-0.297 0.056,-0.311 0.069,-0.325C0.083,-0.338 0.1,-0.35 0.121,-0.361C0.142,-0.372 0.164,-0.38 0.187,-0.387C0.209,-0.393 0.23,-0.396 0.247,-0.396C0.275,-0.396 0.297,-0.387 0.315,-0.37C0.332,-0.352 0.341,-0.325 0.341,-0.288L0.341,-0.108C0.341,-0.087 0.344,-0.072 0.351,-0.061C0.357,-0.05 0.367,-0.045 0.38,-0.045C0.39,-0.045 0.403,-0.048 0.416,-0.054C0.419,-0.055 0.421,-0.054 0.423,-0.051C0.425,-0.047 0.424,-0.044 0.42,-0.043L0.317,0.006ZM0.129,0.007C0.101,0.007 0.08,0 0.066,-0.013C0.052,-0.026 0.046,-0.043 0.045,-0.064C0.046,-0.083 0.051,-0.098 0.061,-0.11C0.071,-0.121 0.085,-0.131 0.103,-0.138C0.121,-0.146 0.141,-0.154 0.163,-0.162L0.27,-0.202L0.273,-0.187L0.2,-0.156C0.192,-0.153 0.183,-0.149 0.174,-0.144C0.165,-0.139 0.157,-0.133 0.15,-0.125C0.144,-0.117 0.141,-0.107 0.141,-0.093C0.141,-0.077 0.146,-0.064 0.157,-0.055C0.168,-0.045 0.18,-0.041 0.193,-0.041C0.199,-0.041 0.205,-0.041 0.211,-0.043C0.217,-0.045 0.224,-0.048 0.232,-0.053L0.286,-0.089L0.287,-0.074L0.216,-0.024C0.201,-0.013 0.187,-0.005 0.174,-0C0.16,0.005 0.146,0.007 0.129,0.007Z" style="fill:rgb(51,36,27);fill-rule:nonzero;"/>
            </g>
            <g transform="matrix(41.666667,0,0,41.666667,189.971868,54.257541)">
                <path d="M0.31,-0C0.308,-0 0.307,-0.002 0.307,-0.006C0.307,-0.01 0.308,-0.012 0.31,-0.012C0.332,-0.012 0.347,-0.017 0.355,-0.026C0.362,-0.035 0.366,-0.054 0.366,-0.081L0.366,-0.231C0.366,-0.269 0.359,-0.296 0.346,-0.314C0.332,-0.331 0.311,-0.34 0.281,-0.34C0.26,-0.34 0.238,-0.334 0.215,-0.323C0.193,-0.311 0.175,-0.295 0.16,-0.274L0.155,-0.286C0.181,-0.321 0.208,-0.349 0.237,-0.369C0.266,-0.388 0.298,-0.398 0.331,-0.398C0.368,-0.398 0.397,-0.387 0.417,-0.365C0.437,-0.342 0.447,-0.312 0.447,-0.274L0.447,-0.081C0.447,-0.054 0.451,-0.035 0.459,-0.026C0.466,-0.017 0.482,-0.012 0.504,-0.012C0.506,-0.012 0.507,-0.01 0.507,-0.006C0.507,-0.002 0.506,-0 0.504,-0C0.492,-0 0.477,-0 0.46,-0.001C0.443,-0.002 0.425,-0.002 0.407,-0.002C0.389,-0.002 0.371,-0.002 0.354,-0.001C0.338,-0 0.323,-0 0.31,-0ZM0.041,-0C0.039,-0 0.038,-0.002 0.038,-0.006C0.038,-0.01 0.039,-0.012 0.041,-0.012C0.063,-0.012 0.078,-0.017 0.086,-0.026C0.093,-0.035 0.097,-0.054 0.097,-0.081L0.097,-0.272C0.097,-0.294 0.095,-0.309 0.09,-0.319C0.085,-0.329 0.077,-0.334 0.065,-0.334C0.059,-0.334 0.051,-0.332 0.043,-0.33C0.035,-0.328 0.025,-0.324 0.015,-0.319C0.012,-0.318 0.01,-0.32 0.009,-0.323C0.007,-0.327 0.007,-0.33 0.009,-0.33L0.14,-0.394C0.143,-0.395 0.146,-0.396 0.147,-0.396C0.153,-0.396 0.16,-0.388 0.167,-0.373C0.175,-0.357 0.178,-0.335 0.178,-0.306L0.178,-0.081C0.178,-0.054 0.182,-0.035 0.19,-0.026C0.197,-0.017 0.213,-0.012 0.235,-0.012C0.237,-0.012 0.238,-0.01 0.238,-0.006C0.238,-0.002 0.237,-0 0.235,-0C0.223,-0 0.208,-0 0.191,-0.001C0.174,-0.002 0.157,-0.002 0.138,-0.002C0.12,-0.002 0.102,-0.002 0.085,-0.001C0.069,-0 0.054,-0 0.041,-0Z" style="fill:rgb(51,36,27);fill-rule:nonzero;"/>
            </g>
            <g transform="matrix(41.666667,0,0,41.666667,211.763534,54.257541)">
                <path d="M0.19,0.013C0.162,0.013 0.136,0.005 0.112,-0.01C0.088,-0.026 0.069,-0.048 0.055,-0.077C0.041,-0.106 0.033,-0.14 0.033,-0.181C0.033,-0.22 0.041,-0.254 0.055,-0.282C0.07,-0.309 0.089,-0.332 0.111,-0.349C0.134,-0.366 0.159,-0.379 0.186,-0.387C0.212,-0.395 0.238,-0.399 0.262,-0.399C0.286,-0.399 0.308,-0.396 0.329,-0.389C0.349,-0.382 0.368,-0.374 0.385,-0.363L0.366,-0.287C0.351,-0.316 0.334,-0.338 0.315,-0.352C0.296,-0.367 0.272,-0.375 0.243,-0.375C0.207,-0.375 0.178,-0.362 0.156,-0.337C0.134,-0.311 0.123,-0.27 0.123,-0.212C0.123,-0.174 0.128,-0.142 0.138,-0.115C0.148,-0.087 0.162,-0.067 0.18,-0.052C0.198,-0.038 0.218,-0.031 0.24,-0.031C0.267,-0.031 0.292,-0.039 0.313,-0.054C0.334,-0.069 0.354,-0.088 0.374,-0.109L0.383,-0.101C0.369,-0.085 0.353,-0.068 0.334,-0.051C0.315,-0.033 0.294,-0.018 0.27,-0.005C0.246,0.007 0.22,0.013 0.19,0.013ZM0.427,-0.714L0.427,-0.114C0.427,-0.091 0.43,-0.074 0.434,-0.065C0.439,-0.055 0.447,-0.05 0.458,-0.05C0.463,-0.05 0.47,-0.051 0.477,-0.053C0.485,-0.055 0.494,-0.058 0.503,-0.062C0.505,-0.063 0.507,-0.062 0.509,-0.058C0.511,-0.055 0.511,-0.052 0.509,-0.051L0.381,0.011C0.379,0.012 0.377,0.012 0.375,0.012C0.368,0.012 0.361,0.004 0.355,-0.012C0.349,-0.028 0.346,-0.051 0.346,-0.082L0.346,-0.592C0.346,-0.615 0.344,-0.632 0.34,-0.642C0.336,-0.653 0.328,-0.658 0.316,-0.658C0.311,-0.658 0.305,-0.657 0.298,-0.655C0.292,-0.652 0.284,-0.649 0.276,-0.646C0.273,-0.645 0.271,-0.646 0.269,-0.65C0.267,-0.654 0.267,-0.657 0.269,-0.657L0.409,-0.724C0.41,-0.725 0.411,-0.725 0.413,-0.725C0.416,-0.725 0.419,-0.724 0.422,-0.721C0.426,-0.719 0.427,-0.716 0.427,-0.714Z" style="fill:rgb(51,36,27);fill-rule:nonzero;"/>
            </g>
            <g transform="matrix(41.666667,0,0,41.666667,233.055201,54.257541)">
            </g>
            <g transform="matrix(41.666667,0,0,41.666667,242.805201,54.257541)">
                <path d="M0.029,-0C0.026,-0 0.025,-0.002 0.025,-0.006C0.025,-0.01 0.026,-0.012 0.029,-0.012C0.055,-0.012 0.072,-0.016 0.08,-0.025C0.088,-0.034 0.092,-0.052 0.092,-0.081L0.092,-0.306C0.092,-0.321 0.09,-0.332 0.086,-0.34C0.082,-0.347 0.076,-0.352 0.066,-0.354C0.056,-0.356 0.043,-0.357 0.025,-0.357C0.023,-0.357 0.022,-0.36 0.022,-0.366C0.022,-0.371 0.023,-0.374 0.025,-0.374C0.05,-0.374 0.067,-0.377 0.076,-0.383C0.084,-0.39 0.089,-0.401 0.09,-0.418C0.093,-0.529 0.114,-0.608 0.152,-0.655C0.19,-0.702 0.246,-0.726 0.319,-0.726C0.356,-0.726 0.384,-0.721 0.405,-0.711C0.426,-0.701 0.436,-0.687 0.436,-0.669C0.436,-0.655 0.432,-0.644 0.422,-0.637C0.413,-0.63 0.402,-0.626 0.391,-0.626C0.376,-0.626 0.366,-0.63 0.359,-0.637C0.353,-0.644 0.347,-0.653 0.341,-0.663C0.335,-0.675 0.328,-0.685 0.319,-0.693C0.311,-0.701 0.299,-0.705 0.281,-0.705C0.25,-0.705 0.224,-0.684 0.204,-0.643C0.183,-0.602 0.173,-0.534 0.173,-0.439L0.173,-0.081C0.173,-0.062 0.175,-0.047 0.179,-0.037C0.183,-0.027 0.192,-0.02 0.205,-0.017C0.218,-0.014 0.238,-0.012 0.265,-0.012C0.268,-0.012 0.269,-0.01 0.269,-0.006C0.269,-0.002 0.268,-0 0.265,-0C0.242,-0 0.22,-0 0.198,-0.001C0.176,-0.002 0.154,-0.002 0.131,-0.002C0.113,-0.002 0.094,-0.002 0.076,-0.001C0.059,-0 0.043,-0 0.029,-0ZM0.286,-0.336C0.26,-0.342 0.236,-0.346 0.212,-0.348C0.188,-0.35 0.163,-0.352 0.136,-0.352L0.136,-0.376C0.162,-0.376 0.187,-0.377 0.211,-0.379C0.236,-0.381 0.262,-0.384 0.289,-0.386C0.291,-0.386 0.293,-0.384 0.294,-0.379C0.296,-0.374 0.296,-0.369 0.296,-0.362C0.296,-0.356 0.295,-0.35 0.293,-0.344C0.291,-0.338 0.289,-0.335 0.286,-0.336Z" style="fill:rgb(51,36,27);fill-rule:nonzero;"/>
            </g>
            <g transform="matrix(41.666667,0,0,41.666667,255.513534,54.257541)">
                <path d="M0.235,0.013C0.194,0.013 0.158,0.003 0.128,-0.016C0.098,-0.035 0.074,-0.061 0.058,-0.093C0.042,-0.126 0.033,-0.161 0.033,-0.198C0.033,-0.233 0.04,-0.263 0.053,-0.288C0.066,-0.313 0.084,-0.334 0.105,-0.351C0.127,-0.367 0.151,-0.379 0.176,-0.387C0.202,-0.395 0.227,-0.399 0.252,-0.399C0.294,-0.399 0.33,-0.389 0.36,-0.369C0.39,-0.349 0.413,-0.323 0.429,-0.292C0.444,-0.261 0.452,-0.227 0.452,-0.192C0.452,-0.151 0.442,-0.115 0.422,-0.084C0.402,-0.053 0.376,-0.029 0.343,-0.012C0.31,0.005 0.274,0.013 0.235,0.013ZM0.265,-0.007C0.294,-0.007 0.317,-0.02 0.333,-0.046C0.349,-0.071 0.357,-0.109 0.357,-0.16C0.357,-0.206 0.35,-0.246 0.337,-0.278C0.325,-0.311 0.308,-0.336 0.287,-0.353C0.266,-0.37 0.243,-0.379 0.219,-0.379C0.189,-0.379 0.167,-0.366 0.151,-0.342C0.135,-0.318 0.127,-0.282 0.127,-0.233C0.127,-0.189 0.133,-0.15 0.145,-0.116C0.157,-0.082 0.174,-0.055 0.194,-0.036C0.215,-0.017 0.239,-0.007 0.265,-0.007Z" style="fill:rgb(51,36,27);fill-rule:nonzero;"/>
            </g>
            <g transform="matrix(41.666667,0,0,41.666667,275.763534,54.257541)">
                <path d="M0.155,-0.271L0.148,-0.283C0.174,-0.313 0.195,-0.336 0.213,-0.353C0.23,-0.369 0.245,-0.38 0.257,-0.386C0.269,-0.393 0.281,-0.396 0.291,-0.396C0.305,-0.396 0.319,-0.391 0.334,-0.381C0.348,-0.372 0.355,-0.36 0.355,-0.345C0.355,-0.333 0.352,-0.323 0.344,-0.315C0.337,-0.307 0.327,-0.303 0.313,-0.303C0.301,-0.303 0.291,-0.306 0.285,-0.313C0.278,-0.319 0.272,-0.326 0.266,-0.332C0.26,-0.338 0.252,-0.341 0.241,-0.341C0.236,-0.341 0.23,-0.34 0.224,-0.337C0.218,-0.333 0.21,-0.327 0.199,-0.317C0.188,-0.307 0.174,-0.292 0.155,-0.271ZM0.041,-0C0.039,-0 0.038,-0.002 0.038,-0.006C0.038,-0.01 0.039,-0.012 0.041,-0.012C0.063,-0.012 0.078,-0.017 0.086,-0.026C0.093,-0.035 0.097,-0.054 0.097,-0.081L0.097,-0.272C0.097,-0.294 0.095,-0.309 0.09,-0.319C0.085,-0.329 0.077,-0.334 0.065,-0.334C0.059,-0.334 0.051,-0.332 0.043,-0.33C0.035,-0.328 0.025,-0.324 0.015,-0.319C0.012,-0.318 0.01,-0.32 0.009,-0.323C0.007,-0.327 0.007,-0.33 0.009,-0.33L0.14,-0.394C0.143,-0.395 0.146,-0.396 0.147,-0.396C0.153,-0.396 0.16,-0.388 0.167,-0.373C0.175,-0.357 0.178,-0.335 0.178,-0.306L0.178,-0.081C0.178,-0.063 0.181,-0.049 0.186,-0.039C0.191,-0.029 0.2,-0.022 0.214,-0.018C0.227,-0.014 0.246,-0.012 0.27,-0.012C0.273,-0.012 0.274,-0.01 0.274,-0.006C0.274,-0.002 0.273,-0 0.27,-0C0.253,-0 0.233,-0 0.21,-0.001C0.188,-0.002 0.164,-0.002 0.138,-0.002C0.12,-0.002 0.102,-0.002 0.085,-0.001C0.069,-0 0.054,-0 0.041,-0Z" style="fill:rgb(51,36,27);fill-rule:nonzero;"/>
            </g>
            <g transform="matrix(41.666667,0,0,41.666667,291.346868,54.257541)">
                <path d="M0.185,0.012C0.169,0.012 0.153,0.009 0.138,0.004C0.122,-0.001 0.109,-0.01 0.098,-0.023C0.088,-0.036 0.083,-0.054 0.083,-0.077L0.083,-0.303C0.083,-0.318 0.081,-0.329 0.079,-0.337C0.076,-0.345 0.07,-0.35 0.063,-0.353C0.056,-0.357 0.045,-0.358 0.032,-0.358C0.029,-0.358 0.028,-0.361 0.028,-0.366C0.028,-0.372 0.029,-0.374 0.032,-0.374C0.063,-0.375 0.089,-0.383 0.109,-0.397C0.129,-0.41 0.142,-0.43 0.15,-0.455C0.151,-0.457 0.154,-0.459 0.158,-0.459C0.163,-0.459 0.165,-0.457 0.165,-0.455L0.165,-0.11C0.165,-0.083 0.172,-0.063 0.186,-0.051C0.199,-0.039 0.217,-0.034 0.239,-0.034C0.255,-0.034 0.27,-0.037 0.283,-0.043C0.297,-0.049 0.308,-0.056 0.318,-0.063C0.32,-0.064 0.322,-0.064 0.325,-0.061C0.328,-0.058 0.328,-0.055 0.325,-0.053C0.3,-0.031 0.277,-0.014 0.255,-0.004C0.234,0.007 0.21,0.012 0.185,0.012ZM0.294,-0.336C0.267,-0.342 0.241,-0.346 0.216,-0.348C0.191,-0.35 0.164,-0.352 0.136,-0.352L0.136,-0.376C0.163,-0.376 0.19,-0.377 0.215,-0.379C0.241,-0.381 0.269,-0.384 0.298,-0.386C0.3,-0.386 0.301,-0.384 0.303,-0.379C0.304,-0.374 0.305,-0.369 0.305,-0.362C0.305,-0.356 0.304,-0.35 0.302,-0.344C0.299,-0.338 0.297,-0.335 0.294,-0.336Z" style="fill:rgb(51,36,27);fill-rule:nonzero;"/>
            </g>
            <g transform="matrix(41.666667,0,0,41.666667,305.388534,54.257541)">
                <path d="M0.023,-0C0.021,-0 0.02,-0.002 0.02,-0.006C0.02,-0.01 0.021,-0.012 0.023,-0.012C0.045,-0.012 0.06,-0.017 0.068,-0.026C0.076,-0.035 0.08,-0.054 0.08,-0.081L0.08,-0.592C0.08,-0.615 0.078,-0.632 0.073,-0.642C0.069,-0.653 0.061,-0.658 0.05,-0.658C0.04,-0.658 0.027,-0.654 0.009,-0.646C0.007,-0.645 0.005,-0.647 0.003,-0.651C0.001,-0.655 0.001,-0.657 0.003,-0.658L0.142,-0.724C0.143,-0.725 0.144,-0.725 0.145,-0.725L0.146,-0.725C0.149,-0.725 0.152,-0.724 0.155,-0.721C0.159,-0.719 0.16,-0.716 0.16,-0.714L0.16,-0.081C0.16,-0.054 0.164,-0.035 0.172,-0.026C0.179,-0.017 0.195,-0.012 0.217,-0.012C0.22,-0.012 0.221,-0.01 0.221,-0.006C0.221,-0.002 0.22,-0 0.217,-0C0.204,-0 0.19,-0 0.173,-0.001C0.157,-0.002 0.139,-0.002 0.12,-0.002C0.102,-0.002 0.084,-0.002 0.067,-0.001C0.05,-0 0.035,-0 0.023,-0ZM0.292,-0C0.29,-0 0.289,-0.002 0.289,-0.006C0.289,-0.01 0.29,-0.012 0.292,-0.012C0.314,-0.012 0.329,-0.017 0.337,-0.026C0.345,-0.035 0.349,-0.054 0.349,-0.081L0.349,-0.23C0.349,-0.303 0.32,-0.34 0.263,-0.34C0.242,-0.34 0.22,-0.334 0.197,-0.322C0.175,-0.31 0.156,-0.294 0.142,-0.273L0.137,-0.285C0.163,-0.321 0.19,-0.348 0.219,-0.368C0.248,-0.388 0.279,-0.397 0.313,-0.397C0.35,-0.397 0.378,-0.386 0.399,-0.364C0.419,-0.342 0.429,-0.311 0.429,-0.274L0.429,-0.081C0.429,-0.054 0.433,-0.035 0.441,-0.026C0.448,-0.017 0.464,-0.012 0.486,-0.012C0.489,-0.012 0.49,-0.01 0.49,-0.006C0.49,-0.002 0.489,-0 0.486,-0C0.473,-0 0.459,-0 0.442,-0.001C0.426,-0.002 0.408,-0.002 0.389,-0.002C0.371,-0.002 0.353,-0.002 0.336,-0.001C0.319,-0 0.304,-0 0.292,-0Z" style="fill:rgb(51,36,27);fill-rule:nonzero;"/>
            </g>
            <g transform="matrix(41.666667,0,0,41.666667,326.430201,54.257541)">
            </g>
        </g>
    </g>
</svg>
